G04 #@! TF.GenerationSoftware,KiCad,Pcbnew,(6.0.11)*
G04 #@! TF.CreationDate,2025-12-09T16:45:55+09:00*
G04 #@! TF.ProjectId,xiao_pio_usb2,7869616f-5f70-4696-9f5f-757362322e6b,rev?*
G04 #@! TF.SameCoordinates,Original*
G04 #@! TF.FileFunction,Legend,Bot*
G04 #@! TF.FilePolarity,Positive*
%FSLAX46Y46*%
G04 Gerber Fmt 4.6, Leading zero omitted, Abs format (unit mm)*
G04 Created by KiCad (PCBNEW (6.0.11)) date 2025-12-09 16:45:55*
%MOMM*%
%LPD*%
G01*
G04 APERTURE LIST*
G04 Aperture macros list*
%AMRoundRect*
0 Rectangle with rounded corners*
0 $1 Rounding radius*
0 $2 $3 $4 $5 $6 $7 $8 $9 X,Y pos of 4 corners*
0 Add a 4 corners polygon primitive as box body*
4,1,4,$2,$3,$4,$5,$6,$7,$8,$9,$2,$3,0*
0 Add four circle primitives for the rounded corners*
1,1,$1+$1,$2,$3*
1,1,$1+$1,$4,$5*
1,1,$1+$1,$6,$7*
1,1,$1+$1,$8,$9*
0 Add four rect primitives between the rounded corners*
20,1,$1+$1,$2,$3,$4,$5,0*
20,1,$1+$1,$4,$5,$6,$7,0*
20,1,$1+$1,$6,$7,$8,$9,0*
20,1,$1+$1,$8,$9,$2,$3,0*%
G04 Aperture macros list end*
%ADD10C,0.200000*%
%ADD11C,0.250000*%
%ADD12C,0.150000*%
%ADD13C,0.120000*%
%ADD14O,1.600000X1.600000*%
%ADD15C,1.600000*%
%ADD16RoundRect,0.400000X0.400000X1.100000X-0.400000X1.100000X-0.400000X-1.100000X0.400000X-1.100000X0*%
%ADD17RoundRect,0.400000X-0.400000X-1.100000X0.400000X-1.100000X0.400000X1.100000X-0.400000X1.100000X0*%
%ADD18C,3.500000*%
%ADD19C,1.800000*%
%ADD20R,1.600000X1.600000*%
%ADD21RoundRect,0.237500X0.300000X0.237500X-0.300000X0.237500X-0.300000X-0.237500X0.300000X-0.237500X0*%
%ADD22RoundRect,0.250000X-0.400000X-0.625000X0.400000X-0.625000X0.400000X0.625000X-0.400000X0.625000X0*%
G04 APERTURE END LIST*
D10*
X105920034Y-75040780D02*
X106009320Y-74993161D01*
X106050986Y-74945542D01*
X106086701Y-74850304D01*
X106050986Y-74564590D01*
X105991463Y-74469352D01*
X105937891Y-74421733D01*
X105836701Y-74374114D01*
X105693844Y-74374114D01*
X105604558Y-74421733D01*
X105562891Y-74469352D01*
X105527177Y-74564590D01*
X105562891Y-74850304D01*
X105622415Y-74945542D01*
X105675986Y-74993161D01*
X105777177Y-75040780D01*
X105920034Y-75040780D01*
X105158129Y-75040780D02*
X105033129Y-74040780D01*
X105015272Y-74659828D02*
X104777177Y-75040780D01*
X104693844Y-74374114D02*
X105122415Y-74755066D01*
X104348605Y-75040780D02*
X104265272Y-74374114D01*
X104223605Y-74040780D02*
X104277177Y-74088400D01*
X104235510Y-74136019D01*
X104181939Y-74088400D01*
X104223605Y-74040780D01*
X104235510Y-74136019D01*
X103872415Y-75040780D02*
X103789082Y-74374114D01*
X103812891Y-74564590D02*
X103753367Y-74469352D01*
X103699796Y-74421733D01*
X103598605Y-74374114D01*
X103503367Y-74374114D01*
X102824796Y-75040780D02*
X102759320Y-74516971D01*
X102795034Y-74421733D01*
X102884320Y-74374114D01*
X103074796Y-74374114D01*
X103175986Y-74421733D01*
X102818844Y-74993161D02*
X102920034Y-75040780D01*
X103158129Y-75040780D01*
X103247415Y-74993161D01*
X103283129Y-74897923D01*
X103271225Y-74802685D01*
X103211701Y-74707447D01*
X103110510Y-74659828D01*
X102872415Y-74659828D01*
X102771225Y-74612209D01*
X102348605Y-75040780D02*
X102223605Y-74040780D01*
X102205748Y-74659828D02*
X101967653Y-75040780D01*
X101884320Y-74374114D02*
X102312891Y-74755066D01*
X101027177Y-74374114D02*
X101110510Y-75040780D01*
X101455748Y-74374114D02*
X101521225Y-74897923D01*
X101485510Y-74993161D01*
X101396225Y-75040780D01*
X101253367Y-75040780D01*
X101152177Y-74993161D01*
X101098605Y-74945542D01*
X100586701Y-74659828D02*
X99824796Y-74659828D01*
X98961701Y-74993161D02*
X99062891Y-75040780D01*
X99253367Y-75040780D01*
X99342653Y-74993161D01*
X99384320Y-74945542D01*
X99420034Y-74850304D01*
X99384320Y-74564590D01*
X99324796Y-74469352D01*
X99271225Y-74421733D01*
X99170034Y-74374114D01*
X98979558Y-74374114D01*
X98890272Y-74421733D01*
X98110510Y-75040780D02*
X98045034Y-74516971D01*
X98080748Y-74421733D01*
X98170034Y-74374114D01*
X98360510Y-74374114D01*
X98461701Y-74421733D01*
X98104558Y-74993161D02*
X98205748Y-75040780D01*
X98443844Y-75040780D01*
X98533129Y-74993161D01*
X98568844Y-74897923D01*
X98556939Y-74802685D01*
X98497415Y-74707447D01*
X98396225Y-74659828D01*
X98158129Y-74659828D01*
X98056939Y-74612209D01*
X97634320Y-75040780D02*
X97550986Y-74374114D01*
X97562891Y-74469352D02*
X97509320Y-74421733D01*
X97408129Y-74374114D01*
X97265272Y-74374114D01*
X97175986Y-74421733D01*
X97140272Y-74516971D01*
X97205748Y-75040780D01*
X97140272Y-74516971D02*
X97080748Y-74421733D01*
X96979558Y-74374114D01*
X96836701Y-74374114D01*
X96747415Y-74421733D01*
X96711701Y-74516971D01*
X96777177Y-75040780D01*
X95914082Y-74993161D02*
X96015272Y-75040780D01*
X96205748Y-75040780D01*
X96295034Y-74993161D01*
X96330748Y-74897923D01*
X96283129Y-74516971D01*
X96223605Y-74421733D01*
X96122415Y-74374114D01*
X95931939Y-74374114D01*
X95842653Y-74421733D01*
X95806939Y-74516971D01*
X95818844Y-74612209D01*
X96306939Y-74707447D01*
X95443844Y-75040780D02*
X95360510Y-74374114D01*
X95384320Y-74564590D02*
X95324796Y-74469352D01*
X95271225Y-74421733D01*
X95170034Y-74374114D01*
X95074796Y-74374114D01*
X94396225Y-75040780D02*
X94330748Y-74516971D01*
X94366463Y-74421733D01*
X94455748Y-74374114D01*
X94646225Y-74374114D01*
X94747415Y-74421733D01*
X94390272Y-74993161D02*
X94491463Y-75040780D01*
X94729558Y-75040780D01*
X94818844Y-74993161D01*
X94854558Y-74897923D01*
X94842653Y-74802685D01*
X94783129Y-74707447D01*
X94681939Y-74659828D01*
X94443844Y-74659828D01*
X94342653Y-74612209D01*
X93908129Y-74945542D02*
X93866463Y-74993161D01*
X93920034Y-75040780D01*
X93961701Y-74993161D01*
X93908129Y-74945542D01*
X93920034Y-75040780D01*
X93503367Y-74374114D02*
X93122415Y-74374114D01*
X93318844Y-74040780D02*
X93425986Y-74897923D01*
X93390272Y-74993161D01*
X93300986Y-75040780D01*
X93205748Y-75040780D01*
X92729558Y-75040780D02*
X92818844Y-74993161D01*
X92860510Y-74945542D01*
X92896225Y-74850304D01*
X92860510Y-74564590D01*
X92800986Y-74469352D01*
X92747415Y-74421733D01*
X92646225Y-74374114D01*
X92503367Y-74374114D01*
X92414082Y-74421733D01*
X92372415Y-74469352D01*
X92336701Y-74564590D01*
X92372415Y-74850304D01*
X92431939Y-74945542D01*
X92485510Y-74993161D01*
X92586701Y-75040780D01*
X92729558Y-75040780D01*
X91967653Y-75040780D02*
X91842653Y-74040780D01*
X91824796Y-74659828D02*
X91586701Y-75040780D01*
X91503367Y-74374114D02*
X91931939Y-74755066D01*
X91170034Y-74374114D02*
X91015272Y-75040780D01*
X90693844Y-74374114D02*
X91015272Y-75040780D01*
X91140272Y-75278876D01*
X91193844Y-75326495D01*
X91295034Y-75374114D01*
X90253367Y-75040780D02*
X90342653Y-74993161D01*
X90384320Y-74945542D01*
X90420034Y-74850304D01*
X90384320Y-74564590D01*
X90324796Y-74469352D01*
X90271225Y-74421733D01*
X90170034Y-74374114D01*
X90027177Y-74374114D01*
X89937891Y-74421733D01*
X89896225Y-74469352D01*
X89860510Y-74564590D01*
X89896225Y-74850304D01*
X89955748Y-74945542D01*
X90009320Y-74993161D01*
X90110510Y-75040780D01*
X90253367Y-75040780D01*
D11*
X95218219Y-73297596D02*
X94218219Y-72755929D01*
X95218219Y-72630929D02*
X94218219Y-73422596D01*
X94218219Y-72374977D02*
X95218219Y-72249977D01*
X94503933Y-71910691D02*
X94503933Y-71434501D01*
X94218219Y-72041644D02*
X95218219Y-71583310D01*
X94218219Y-71374977D01*
X95218219Y-70726167D02*
X95218219Y-70535691D01*
X95170600Y-70446405D01*
X95075361Y-70363072D01*
X94884885Y-70339263D01*
X94551552Y-70380929D01*
X94361076Y-70452358D01*
X94265838Y-70559501D01*
X94218219Y-70660691D01*
X94218219Y-70851167D01*
X94265838Y-70940453D01*
X94361076Y-71023786D01*
X94551552Y-71047596D01*
X94884885Y-71005929D01*
X95075361Y-70934501D01*
X95170600Y-70827358D01*
X95218219Y-70726167D01*
X94218219Y-68660691D02*
X94694409Y-68934501D01*
X94218219Y-69232120D02*
X95218219Y-69107120D01*
X95218219Y-68726167D01*
X95170600Y-68636882D01*
X95122980Y-68595215D01*
X95027742Y-68559501D01*
X94884885Y-68577358D01*
X94789647Y-68636882D01*
X94742028Y-68690453D01*
X94694409Y-68791644D01*
X94694409Y-69172596D01*
X94218219Y-68232120D02*
X95218219Y-68107120D01*
X95218219Y-67726167D01*
X95170600Y-67636882D01*
X95122980Y-67595215D01*
X95027742Y-67559501D01*
X94884885Y-67577358D01*
X94789647Y-67636882D01*
X94742028Y-67690453D01*
X94694409Y-67791644D01*
X94694409Y-68172596D01*
X95122980Y-67166644D02*
X95170600Y-67113072D01*
X95218219Y-67011882D01*
X95218219Y-66773786D01*
X95170600Y-66684501D01*
X95122980Y-66642834D01*
X95027742Y-66607120D01*
X94932504Y-66619025D01*
X94789647Y-66684501D01*
X94218219Y-67327358D01*
X94218219Y-66708310D01*
X95218219Y-65964263D02*
X95218219Y-65869025D01*
X95170600Y-65779739D01*
X95122980Y-65738072D01*
X95027742Y-65702358D01*
X94837266Y-65678548D01*
X94599171Y-65708310D01*
X94408695Y-65779739D01*
X94313457Y-65839263D01*
X94265838Y-65892834D01*
X94218219Y-65994025D01*
X94218219Y-66089263D01*
X94265838Y-66178548D01*
X94313457Y-66220215D01*
X94408695Y-66255929D01*
X94599171Y-66279739D01*
X94837266Y-66249977D01*
X95027742Y-66178548D01*
X95122980Y-66119025D01*
X95170600Y-66065453D01*
X95218219Y-65964263D01*
X94884885Y-64815453D02*
X94218219Y-64898786D01*
X95265838Y-65005929D02*
X94551552Y-65333310D01*
X94551552Y-64714263D01*
X95218219Y-64059501D02*
X95218219Y-63964263D01*
X95170600Y-63874977D01*
X95122980Y-63833310D01*
X95027742Y-63797596D01*
X94837266Y-63773786D01*
X94599171Y-63803548D01*
X94408695Y-63874977D01*
X94313457Y-63934501D01*
X94265838Y-63988072D01*
X94218219Y-64089263D01*
X94218219Y-64184501D01*
X94265838Y-64273786D01*
X94313457Y-64315453D01*
X94408695Y-64351167D01*
X94599171Y-64374977D01*
X94837266Y-64345215D01*
X95027742Y-64273786D01*
X95122980Y-64214263D01*
X95170600Y-64160691D01*
X95218219Y-64059501D01*
X92608219Y-71755929D02*
X93608219Y-71630929D01*
X93608219Y-71249977D01*
X93560600Y-71160691D01*
X93512980Y-71119025D01*
X93417742Y-71083310D01*
X93274885Y-71101167D01*
X93179647Y-71160691D01*
X93132028Y-71214263D01*
X93084409Y-71315453D01*
X93084409Y-71696405D01*
X92608219Y-70755929D02*
X93608219Y-70630929D01*
X93608219Y-69964263D02*
X93608219Y-69773786D01*
X93560600Y-69684501D01*
X93465361Y-69601167D01*
X93274885Y-69577358D01*
X92941552Y-69619025D01*
X92751076Y-69690453D01*
X92655838Y-69797596D01*
X92608219Y-69898786D01*
X92608219Y-70089263D01*
X92655838Y-70178548D01*
X92751076Y-70261882D01*
X92941552Y-70285691D01*
X93274885Y-70244025D01*
X93465361Y-70172596D01*
X93560600Y-70065453D01*
X93608219Y-69964263D01*
X92989171Y-69184501D02*
X92989171Y-68422596D01*
X93608219Y-67869025D02*
X92798695Y-67970215D01*
X92703457Y-67934501D01*
X92655838Y-67892834D01*
X92608219Y-67803548D01*
X92608219Y-67613072D01*
X92655838Y-67511882D01*
X92703457Y-67458310D01*
X92798695Y-67398786D01*
X93608219Y-67297596D01*
X92655838Y-66988072D02*
X92608219Y-66851167D01*
X92608219Y-66613072D01*
X92655838Y-66511882D01*
X92703457Y-66458310D01*
X92798695Y-66398786D01*
X92893933Y-66386882D01*
X92989171Y-66422596D01*
X93036790Y-66464263D01*
X93084409Y-66553548D01*
X93132028Y-66738072D01*
X93179647Y-66827358D01*
X93227266Y-66869025D01*
X93322504Y-66904739D01*
X93417742Y-66892834D01*
X93512980Y-66833310D01*
X93560600Y-66779739D01*
X93608219Y-66678548D01*
X93608219Y-66440453D01*
X93560600Y-66303548D01*
X93132028Y-65595215D02*
X93084409Y-65458310D01*
X93036790Y-65416644D01*
X92941552Y-65380929D01*
X92798695Y-65398786D01*
X92703457Y-65458310D01*
X92655838Y-65511882D01*
X92608219Y-65613072D01*
X92608219Y-65994025D01*
X93608219Y-65869025D01*
X93608219Y-65535691D01*
X93560600Y-65446405D01*
X93512980Y-65404739D01*
X93417742Y-65369025D01*
X93322504Y-65380929D01*
X93227266Y-65440453D01*
X93179647Y-65494025D01*
X93132028Y-65595215D01*
X93132028Y-65928548D01*
X90998219Y-72541644D02*
X91998219Y-72416644D01*
X90998219Y-72113072D02*
X91522028Y-72047596D01*
X91617266Y-72083310D01*
X91664885Y-72172596D01*
X91664885Y-72315453D01*
X91617266Y-72416644D01*
X91569647Y-72470215D01*
X90998219Y-71494025D02*
X91045838Y-71583310D01*
X91093457Y-71624977D01*
X91188695Y-71660691D01*
X91474409Y-71624977D01*
X91569647Y-71565453D01*
X91617266Y-71511882D01*
X91664885Y-71410691D01*
X91664885Y-71267834D01*
X91617266Y-71178548D01*
X91569647Y-71136882D01*
X91474409Y-71101167D01*
X91188695Y-71136882D01*
X91093457Y-71196405D01*
X91045838Y-71249977D01*
X90998219Y-71351167D01*
X90998219Y-71494025D01*
X90998219Y-70732120D02*
X91998219Y-70607120D01*
X91617266Y-70654739D02*
X91664885Y-70553548D01*
X91664885Y-70363072D01*
X91617266Y-70273786D01*
X91569647Y-70232120D01*
X91474409Y-70196405D01*
X91188695Y-70232120D01*
X91093457Y-70291644D01*
X91045838Y-70345215D01*
X90998219Y-70446405D01*
X90998219Y-70636882D01*
X91045838Y-70726167D01*
X90998219Y-69684501D02*
X91045838Y-69773786D01*
X91093457Y-69815453D01*
X91188695Y-69851167D01*
X91474409Y-69815453D01*
X91569647Y-69755929D01*
X91617266Y-69702358D01*
X91664885Y-69601167D01*
X91664885Y-69458310D01*
X91617266Y-69369025D01*
X91569647Y-69327358D01*
X91474409Y-69291644D01*
X91188695Y-69327358D01*
X91093457Y-69386882D01*
X91045838Y-69440453D01*
X90998219Y-69541644D01*
X90998219Y-69684501D01*
X90998219Y-68922596D02*
X91998219Y-68797596D01*
X90998219Y-68351167D01*
X91998219Y-68226167D01*
X90998219Y-67874977D02*
X91664885Y-67791644D01*
X91998219Y-67749977D02*
X91950600Y-67803548D01*
X91902980Y-67761882D01*
X91950600Y-67708310D01*
X91998219Y-67749977D01*
X91902980Y-67761882D01*
X91045838Y-66964263D02*
X90998219Y-67065453D01*
X90998219Y-67255929D01*
X91045838Y-67345215D01*
X91093457Y-67386882D01*
X91188695Y-67422596D01*
X91474409Y-67386882D01*
X91569647Y-67327358D01*
X91617266Y-67273786D01*
X91664885Y-67172596D01*
X91664885Y-66982120D01*
X91617266Y-66892834D01*
X90998219Y-66398786D02*
X91045838Y-66488072D01*
X91093457Y-66529739D01*
X91188695Y-66565453D01*
X91474409Y-66529739D01*
X91569647Y-66470215D01*
X91617266Y-66416644D01*
X91664885Y-66315453D01*
X91664885Y-66172596D01*
X91617266Y-66083310D01*
X91569647Y-66041644D01*
X91474409Y-66005929D01*
X91188695Y-66041644D01*
X91093457Y-66101167D01*
X91045838Y-66154739D01*
X90998219Y-66255929D01*
X90998219Y-66398786D01*
X90998219Y-65494025D02*
X91045838Y-65583310D01*
X91141076Y-65619025D01*
X91998219Y-65511882D01*
X90998219Y-64684501D02*
X91522028Y-64619025D01*
X91617266Y-64654739D01*
X91664885Y-64744025D01*
X91664885Y-64934501D01*
X91617266Y-65035691D01*
X91045838Y-64678548D02*
X90998219Y-64779739D01*
X90998219Y-65017834D01*
X91045838Y-65107120D01*
X91141076Y-65142834D01*
X91236314Y-65130929D01*
X91331552Y-65071405D01*
X91379171Y-64970215D01*
X91379171Y-64732120D01*
X91426790Y-64630929D01*
D12*
X102843457Y-73125542D02*
X102891076Y-73173161D01*
X103033933Y-73220780D01*
X103129171Y-73220780D01*
X103272028Y-73173161D01*
X103367266Y-73077923D01*
X103414885Y-72982685D01*
X103462504Y-72792209D01*
X103462504Y-72649352D01*
X103414885Y-72458876D01*
X103367266Y-72363638D01*
X103272028Y-72268400D01*
X103129171Y-72220780D01*
X103033933Y-72220780D01*
X102891076Y-72268400D01*
X102843457Y-72316019D01*
X101891076Y-73220780D02*
X102462504Y-73220780D01*
X102176790Y-73220780D02*
X102176790Y-72220780D01*
X102272028Y-72363638D01*
X102367266Y-72458876D01*
X102462504Y-72506495D01*
X101272028Y-72220780D02*
X101176790Y-72220780D01*
X101081552Y-72268400D01*
X101033933Y-72316019D01*
X100986314Y-72411257D01*
X100938695Y-72601733D01*
X100938695Y-72839828D01*
X100986314Y-73030304D01*
X101033933Y-73125542D01*
X101081552Y-73173161D01*
X101176790Y-73220780D01*
X101272028Y-73220780D01*
X101367266Y-73173161D01*
X101414885Y-73125542D01*
X101462504Y-73030304D01*
X101510123Y-72839828D01*
X101510123Y-72601733D01*
X101462504Y-72411257D01*
X101414885Y-72316019D01*
X101367266Y-72268400D01*
X101272028Y-72220780D01*
X98513457Y-68050780D02*
X98846790Y-67574590D01*
X99084885Y-68050780D02*
X99084885Y-67050780D01*
X98703933Y-67050780D01*
X98608695Y-67098400D01*
X98561076Y-67146019D01*
X98513457Y-67241257D01*
X98513457Y-67384114D01*
X98561076Y-67479352D01*
X98608695Y-67526971D01*
X98703933Y-67574590D01*
X99084885Y-67574590D01*
X97561076Y-68050780D02*
X98132504Y-68050780D01*
X97846790Y-68050780D02*
X97846790Y-67050780D01*
X97942028Y-67193638D01*
X98037266Y-67288876D01*
X98132504Y-67336495D01*
X96942028Y-67050780D02*
X96846790Y-67050780D01*
X96751552Y-67098400D01*
X96703933Y-67146019D01*
X96656314Y-67241257D01*
X96608695Y-67431733D01*
X96608695Y-67669828D01*
X96656314Y-67860304D01*
X96703933Y-67955542D01*
X96751552Y-68003161D01*
X96846790Y-68050780D01*
X96942028Y-68050780D01*
X97037266Y-68003161D01*
X97084885Y-67955542D01*
X97132504Y-67860304D01*
X97180123Y-67669828D01*
X97180123Y-67431733D01*
X97132504Y-67241257D01*
X97084885Y-67146019D01*
X97037266Y-67098400D01*
X96942028Y-67050780D01*
X98613457Y-72210780D02*
X98946790Y-71734590D01*
X99184885Y-72210780D02*
X99184885Y-71210780D01*
X98803933Y-71210780D01*
X98708695Y-71258400D01*
X98661076Y-71306019D01*
X98613457Y-71401257D01*
X98613457Y-71544114D01*
X98661076Y-71639352D01*
X98708695Y-71686971D01*
X98803933Y-71734590D01*
X99184885Y-71734590D01*
X98232504Y-71306019D02*
X98184885Y-71258400D01*
X98089647Y-71210780D01*
X97851552Y-71210780D01*
X97756314Y-71258400D01*
X97708695Y-71306019D01*
X97661076Y-71401257D01*
X97661076Y-71496495D01*
X97708695Y-71639352D01*
X98280123Y-72210780D01*
X97661076Y-72210780D01*
X97042028Y-71210780D02*
X96946790Y-71210780D01*
X96851552Y-71258400D01*
X96803933Y-71306019D01*
X96756314Y-71401257D01*
X96708695Y-71591733D01*
X96708695Y-71829828D01*
X96756314Y-72020304D01*
X96803933Y-72115542D01*
X96851552Y-72163161D01*
X96946790Y-72210780D01*
X97042028Y-72210780D01*
X97137266Y-72163161D01*
X97184885Y-72115542D01*
X97232504Y-72020304D01*
X97280123Y-71829828D01*
X97280123Y-71591733D01*
X97232504Y-71401257D01*
X97184885Y-71306019D01*
X97137266Y-71258400D01*
X97042028Y-71210780D01*
D13*
X105706867Y-72218400D02*
X105414333Y-72218400D01*
X105706867Y-73238400D02*
X105414333Y-73238400D01*
X101952936Y-66788400D02*
X103407064Y-66788400D01*
X101952936Y-64968400D02*
X103407064Y-64968400D01*
X101952936Y-70748400D02*
X103407064Y-70748400D01*
X101952936Y-68928400D02*
X103407064Y-68928400D01*
%LPC*%
D14*
X106450000Y-65878400D03*
D15*
X98830000Y-65878400D03*
D14*
X106450600Y-69698400D03*
D15*
X98830600Y-69698400D03*
D16*
X91220600Y-61178400D03*
X93760600Y-61178400D03*
X96300600Y-61178400D03*
X98840600Y-61178400D03*
X101380600Y-61178400D03*
X103920600Y-61178400D03*
X106460600Y-61178400D03*
D17*
X106460600Y-77218400D03*
X103920600Y-77218400D03*
X101380600Y-77218400D03*
X98840600Y-77218400D03*
X96300600Y-77218400D03*
X93760600Y-77218400D03*
X91220600Y-77218400D03*
D18*
X115374700Y-75824600D03*
X115374700Y-62684600D03*
D19*
X112664700Y-65754600D03*
X112664700Y-68254600D03*
X112664700Y-70254600D03*
D20*
X112664700Y-72754600D03*
D15*
X109690600Y-74848400D03*
X109690600Y-72348400D03*
D21*
X104698100Y-72728400D03*
X106423100Y-72728400D03*
D22*
X104230000Y-65878400D03*
X101130000Y-65878400D03*
X104230000Y-69838400D03*
X101130000Y-69838400D03*
M02*
