G04 #@! TF.GenerationSoftware,KiCad,Pcbnew,(6.0.11)*
G04 #@! TF.CreationDate,2025-12-09T16:45:55+09:00*
G04 #@! TF.ProjectId,xiao_pio_usb2,7869616f-5f70-4696-9f5f-757362322e6b,rev?*
G04 #@! TF.SameCoordinates,Original*
G04 #@! TF.FileFunction,Copper,L2,Bot*
G04 #@! TF.FilePolarity,Positive*
%FSLAX46Y46*%
G04 Gerber Fmt 4.6, Leading zero omitted, Abs format (unit mm)*
G04 Created by KiCad (PCBNEW (6.0.11)) date 2025-12-09 16:45:55*
%MOMM*%
%LPD*%
G01*
G04 APERTURE LIST*
G04 Aperture macros list*
%AMRoundRect*
0 Rectangle with rounded corners*
0 $1 Rounding radius*
0 $2 $3 $4 $5 $6 $7 $8 $9 X,Y pos of 4 corners*
0 Add a 4 corners polygon primitive as box body*
4,1,4,$2,$3,$4,$5,$6,$7,$8,$9,$2,$3,0*
0 Add four circle primitives for the rounded corners*
1,1,$1+$1,$2,$3*
1,1,$1+$1,$4,$5*
1,1,$1+$1,$6,$7*
1,1,$1+$1,$8,$9*
0 Add four rect primitives between the rounded corners*
20,1,$1+$1,$2,$3,$4,$5,0*
20,1,$1+$1,$4,$5,$6,$7,0*
20,1,$1+$1,$6,$7,$8,$9,0*
20,1,$1+$1,$8,$9,$2,$3,0*%
G04 Aperture macros list end*
G04 #@! TA.AperFunction,ComponentPad*
%ADD10O,1.600000X1.600000*%
G04 #@! TD*
G04 #@! TA.AperFunction,ComponentPad*
%ADD11C,1.600000*%
G04 #@! TD*
G04 #@! TA.AperFunction,ComponentPad*
%ADD12RoundRect,0.400000X0.400000X1.100000X-0.400000X1.100000X-0.400000X-1.100000X0.400000X-1.100000X0*%
G04 #@! TD*
G04 #@! TA.AperFunction,ComponentPad*
%ADD13RoundRect,0.400000X-0.400000X-1.100000X0.400000X-1.100000X0.400000X1.100000X-0.400000X1.100000X0*%
G04 #@! TD*
G04 #@! TA.AperFunction,ComponentPad*
%ADD14C,3.500000*%
G04 #@! TD*
G04 #@! TA.AperFunction,ComponentPad*
%ADD15C,1.800000*%
G04 #@! TD*
G04 #@! TA.AperFunction,ComponentPad*
%ADD16R,1.600000X1.600000*%
G04 #@! TD*
G04 #@! TA.AperFunction,SMDPad,CuDef*
%ADD17RoundRect,0.237500X0.300000X0.237500X-0.300000X0.237500X-0.300000X-0.237500X0.300000X-0.237500X0*%
G04 #@! TD*
G04 #@! TA.AperFunction,SMDPad,CuDef*
%ADD18RoundRect,0.250000X-0.400000X-0.625000X0.400000X-0.625000X0.400000X0.625000X-0.400000X0.625000X0*%
G04 #@! TD*
G04 #@! TA.AperFunction,ViaPad*
%ADD19C,1.000000*%
G04 #@! TD*
G04 #@! TA.AperFunction,ViaPad*
%ADD20C,0.800000*%
G04 #@! TD*
G04 #@! TA.AperFunction,Conductor*
%ADD21C,0.350000*%
G04 #@! TD*
G04 #@! TA.AperFunction,Conductor*
%ADD22C,0.500000*%
G04 #@! TD*
G04 #@! TA.AperFunction,Conductor*
%ADD23C,2.000000*%
G04 #@! TD*
G04 APERTURE END LIST*
D10*
X106450000Y-65878400D03*
D11*
X98830000Y-65878400D03*
D10*
X106450600Y-69698400D03*
D11*
X98830600Y-69698400D03*
D12*
X91220600Y-61178400D03*
X93760600Y-61178400D03*
X96300600Y-61178400D03*
X98840600Y-61178400D03*
X101380600Y-61178400D03*
X103920600Y-61178400D03*
X106460600Y-61178400D03*
D13*
X106460600Y-77218400D03*
X103920600Y-77218400D03*
X101380600Y-77218400D03*
X98840600Y-77218400D03*
X96300600Y-77218400D03*
X93760600Y-77218400D03*
X91220600Y-77218400D03*
D14*
X115374700Y-75824600D03*
X115374700Y-62684600D03*
D15*
X112664700Y-65754600D03*
X112664700Y-68254600D03*
X112664700Y-70254600D03*
D16*
X112664700Y-72754600D03*
D11*
X109690600Y-74848400D03*
X109690600Y-72348400D03*
D17*
X104698100Y-72728400D03*
X106423100Y-72728400D03*
D18*
X104230000Y-65878400D03*
X101130000Y-65878400D03*
X104230000Y-69838400D03*
X101130000Y-69838400D03*
D19*
X96640600Y-73608400D03*
D20*
X93760600Y-63318400D03*
D21*
X99415773Y-64173199D02*
G75*
G03*
X98830000Y-65587427I1414227J-1414201D01*
G01*
X99519159Y-64069873D02*
G75*
G02*
X100933356Y-63484071I1414241J-1414227D01*
G01*
X103920600Y-62078400D02*
X103920600Y-61578400D01*
X103086387Y-62912613D02*
X103920600Y-62078400D01*
X100933356Y-63484071D02*
X101946713Y-63484071D01*
X98830000Y-65878400D02*
X98830000Y-65587427D01*
X99415787Y-64173213D02*
X99519143Y-64069857D01*
X103086404Y-62912630D02*
G75*
G02*
X101946713Y-63484070I-1441604J1452930D01*
G01*
X98254827Y-63804201D02*
G75*
G03*
X98840600Y-62389973I-1414227J1414201D01*
G01*
X97886373Y-68754201D02*
G75*
G02*
X97300600Y-67339973I1414227J1414201D01*
G01*
X97886372Y-64172600D02*
G75*
G03*
X97300600Y-65586827I1414228J-1414200D01*
G01*
X97886387Y-68754187D02*
X98830600Y-69698400D01*
X98254813Y-63804187D02*
X97886386Y-64172614D01*
X98840600Y-61578400D02*
X98840600Y-62389973D01*
X97300600Y-65586827D02*
X97300600Y-67339973D01*
D22*
X95184799Y-73022627D02*
G75*
G03*
X96599027Y-73608400I1414201J1414227D01*
G01*
X95184813Y-73022613D02*
X91806386Y-69644186D01*
X96640600Y-73608400D02*
X96599027Y-73608400D01*
X91220620Y-68229973D02*
G75*
G03*
X91806387Y-69644185I1999980J-27D01*
G01*
X91220600Y-68229973D02*
X91220600Y-61578400D01*
X106423100Y-72728400D02*
X106503100Y-72648400D01*
X106503100Y-72648400D02*
X109700600Y-72648400D01*
D23*
X93760600Y-61578400D02*
X93760600Y-63218400D01*
X93760600Y-63218400D02*
X93800600Y-63258400D01*
D21*
X104130000Y-69838400D02*
X106410000Y-69838400D01*
X104250600Y-65878400D02*
X106450000Y-65878400D01*
X98830000Y-65878400D02*
X101150600Y-65878400D01*
X100990000Y-69878400D02*
X101030000Y-69838400D01*
X98830000Y-69878400D02*
X100990000Y-69878400D01*
G04 #@! TA.AperFunction,Conductor*
G36*
X119126018Y-59528400D02*
G01*
X119140852Y-59530710D01*
X119140855Y-59530710D01*
X119149724Y-59532091D01*
X119158626Y-59530927D01*
X119158750Y-59530911D01*
X119189192Y-59530640D01*
X119202070Y-59532091D01*
X119251264Y-59537634D01*
X119278771Y-59543913D01*
X119355853Y-59570885D01*
X119381274Y-59583127D01*
X119450426Y-59626578D01*
X119472485Y-59644170D01*
X119530230Y-59701915D01*
X119547822Y-59723974D01*
X119591273Y-59793126D01*
X119603515Y-59818547D01*
X119630487Y-59895628D01*
X119636766Y-59923136D01*
X119643018Y-59978626D01*
X119642923Y-59994268D01*
X119643800Y-59994279D01*
X119643690Y-60003251D01*
X119642309Y-60012124D01*
X119643473Y-60021026D01*
X119643473Y-60021028D01*
X119646436Y-60043683D01*
X119647500Y-60060021D01*
X119647500Y-78329033D01*
X119646000Y-78348418D01*
X119642309Y-78372124D01*
X119643473Y-78381026D01*
X119643489Y-78381150D01*
X119643760Y-78411593D01*
X119636766Y-78473664D01*
X119630487Y-78501171D01*
X119603515Y-78578253D01*
X119591273Y-78603674D01*
X119547822Y-78672826D01*
X119530230Y-78694885D01*
X119472485Y-78752630D01*
X119450426Y-78770222D01*
X119381274Y-78813673D01*
X119355853Y-78825915D01*
X119278772Y-78852887D01*
X119251264Y-78859166D01*
X119195774Y-78865418D01*
X119180132Y-78865323D01*
X119180121Y-78866200D01*
X119171149Y-78866090D01*
X119162276Y-78864709D01*
X119153374Y-78865873D01*
X119153372Y-78865873D01*
X119142385Y-78867310D01*
X119130714Y-78868836D01*
X119114379Y-78869900D01*
X107804843Y-78869900D01*
X107736722Y-78849898D01*
X107690229Y-78796242D01*
X107680125Y-78725968D01*
X107692576Y-78686697D01*
X107693520Y-78684845D01*
X107713429Y-78645771D01*
X107730600Y-78581688D01*
X107761363Y-78466881D01*
X107761364Y-78466877D01*
X107762857Y-78461304D01*
X107766668Y-78412879D01*
X107768907Y-78384437D01*
X107768907Y-78384430D01*
X107769100Y-78381981D01*
X107769100Y-77593456D01*
X113971301Y-77593456D01*
X113977759Y-77602816D01*
X113994061Y-77617112D01*
X114000601Y-77622130D01*
X114239844Y-77781987D01*
X114246981Y-77786108D01*
X114505049Y-77913372D01*
X114512653Y-77916522D01*
X114785120Y-78009012D01*
X114793083Y-78011146D01*
X115075300Y-78067283D01*
X115083451Y-78068356D01*
X115370581Y-78087175D01*
X115378819Y-78087175D01*
X115665949Y-78068356D01*
X115674100Y-78067283D01*
X115956317Y-78011146D01*
X115964280Y-78009012D01*
X116236747Y-77916522D01*
X116244351Y-77913372D01*
X116502419Y-77786108D01*
X116509556Y-77781987D01*
X116748799Y-77622130D01*
X116755339Y-77617112D01*
X116769774Y-77604453D01*
X116778172Y-77591214D01*
X116772338Y-77581449D01*
X115387510Y-76196620D01*
X115373569Y-76189008D01*
X115371734Y-76189139D01*
X115365120Y-76193390D01*
X113978816Y-77579695D01*
X113971301Y-77593456D01*
X107769100Y-77593456D01*
X107769099Y-76054820D01*
X107762857Y-75975496D01*
X107751862Y-75934462D01*
X108969093Y-75934462D01*
X108978389Y-75946477D01*
X109029594Y-75982331D01*
X109039089Y-75987814D01*
X109236547Y-76079890D01*
X109246839Y-76083636D01*
X109457288Y-76140025D01*
X109468081Y-76141928D01*
X109685125Y-76160917D01*
X109696075Y-76160917D01*
X109913119Y-76141928D01*
X109923912Y-76140025D01*
X110134361Y-76083636D01*
X110144653Y-76079890D01*
X110342111Y-75987814D01*
X110351606Y-75982331D01*
X110403648Y-75945891D01*
X110412024Y-75935412D01*
X110404956Y-75921966D01*
X110311709Y-75828719D01*
X113112125Y-75828719D01*
X113130944Y-76115849D01*
X113132017Y-76124000D01*
X113188154Y-76406217D01*
X113190288Y-76414180D01*
X113282778Y-76686647D01*
X113285928Y-76694251D01*
X113413192Y-76952318D01*
X113417313Y-76959455D01*
X113577170Y-77198699D01*
X113582188Y-77205239D01*
X113594847Y-77219674D01*
X113608086Y-77228072D01*
X113617851Y-77222238D01*
X115002680Y-75837410D01*
X115009057Y-75825731D01*
X115739108Y-75825731D01*
X115739239Y-75827566D01*
X115743490Y-75834180D01*
X117129795Y-77220484D01*
X117143556Y-77227999D01*
X117152916Y-77221541D01*
X117167212Y-77205239D01*
X117172230Y-77198699D01*
X117332087Y-76959455D01*
X117336208Y-76952318D01*
X117463472Y-76694251D01*
X117466622Y-76686647D01*
X117559112Y-76414180D01*
X117561246Y-76406217D01*
X117617383Y-76124000D01*
X117618456Y-76115849D01*
X117637275Y-75828719D01*
X117637275Y-75820481D01*
X117618456Y-75533351D01*
X117617383Y-75525200D01*
X117561246Y-75242983D01*
X117559112Y-75235020D01*
X117466622Y-74962553D01*
X117463472Y-74954949D01*
X117336208Y-74696882D01*
X117332087Y-74689745D01*
X117172230Y-74450501D01*
X117167212Y-74443961D01*
X117154553Y-74429526D01*
X117141314Y-74421128D01*
X117131549Y-74426962D01*
X115746720Y-75811790D01*
X115739108Y-75825731D01*
X115009057Y-75825731D01*
X115010292Y-75823469D01*
X115010161Y-75821634D01*
X115005910Y-75815020D01*
X113619605Y-74428716D01*
X113605844Y-74421201D01*
X113596484Y-74427659D01*
X113582188Y-74443961D01*
X113577170Y-74450501D01*
X113417313Y-74689745D01*
X113413192Y-74696882D01*
X113285928Y-74954949D01*
X113282778Y-74962553D01*
X113190288Y-75235020D01*
X113188154Y-75242983D01*
X113132017Y-75525200D01*
X113130944Y-75533351D01*
X113112125Y-75820481D01*
X113112125Y-75828719D01*
X110311709Y-75828719D01*
X109703412Y-75220422D01*
X109689468Y-75212808D01*
X109687635Y-75212939D01*
X109681020Y-75217190D01*
X108975523Y-75922687D01*
X108969093Y-75934462D01*
X107751862Y-75934462D01*
X107723528Y-75828719D01*
X107715137Y-75797403D01*
X107715137Y-75797402D01*
X107713429Y-75791029D01*
X107626729Y-75620870D01*
X107622576Y-75615741D01*
X107622573Y-75615737D01*
X107510700Y-75477586D01*
X107506545Y-75472455D01*
X107501414Y-75468300D01*
X107363263Y-75356427D01*
X107363259Y-75356424D01*
X107358130Y-75352271D01*
X107352253Y-75349276D01*
X107352249Y-75349274D01*
X107193851Y-75268567D01*
X107187971Y-75265571D01*
X107181597Y-75263863D01*
X107009081Y-75217637D01*
X107009077Y-75217636D01*
X107003504Y-75216143D01*
X106993775Y-75215377D01*
X106926637Y-75210093D01*
X106926630Y-75210093D01*
X106924181Y-75209900D01*
X106460788Y-75209900D01*
X105997020Y-75209901D01*
X105947653Y-75213786D01*
X105923450Y-75215690D01*
X105923448Y-75215690D01*
X105917696Y-75216143D01*
X105733229Y-75265571D01*
X105727349Y-75268567D01*
X105568951Y-75349274D01*
X105568947Y-75349276D01*
X105563070Y-75352271D01*
X105557941Y-75356424D01*
X105557937Y-75356427D01*
X105419786Y-75468300D01*
X105414655Y-75472455D01*
X105410500Y-75477586D01*
X105298627Y-75615737D01*
X105298624Y-75615741D01*
X105294471Y-75620870D01*
X105294434Y-75620942D01*
X105242392Y-75665602D01*
X105172070Y-75675369D01*
X105107632Y-75645567D01*
X105087438Y-75622261D01*
X105086729Y-75620870D01*
X105082576Y-75615741D01*
X105082573Y-75615737D01*
X104970700Y-75477586D01*
X104966545Y-75472455D01*
X104961414Y-75468300D01*
X104823263Y-75356427D01*
X104823259Y-75356424D01*
X104818130Y-75352271D01*
X104812253Y-75349276D01*
X104812249Y-75349274D01*
X104653851Y-75268567D01*
X104647971Y-75265571D01*
X104641597Y-75263863D01*
X104469081Y-75217637D01*
X104469077Y-75217636D01*
X104463504Y-75216143D01*
X104453775Y-75215377D01*
X104386637Y-75210093D01*
X104386630Y-75210093D01*
X104384181Y-75209900D01*
X103920788Y-75209900D01*
X103457020Y-75209901D01*
X103407653Y-75213786D01*
X103383450Y-75215690D01*
X103383448Y-75215690D01*
X103377696Y-75216143D01*
X103193229Y-75265571D01*
X103187349Y-75268567D01*
X103028951Y-75349274D01*
X103028947Y-75349276D01*
X103023070Y-75352271D01*
X103017941Y-75356424D01*
X103017937Y-75356427D01*
X102879786Y-75468300D01*
X102874655Y-75472455D01*
X102870500Y-75477586D01*
X102758627Y-75615737D01*
X102758624Y-75615741D01*
X102754471Y-75620870D01*
X102754434Y-75620942D01*
X102702392Y-75665602D01*
X102632070Y-75675369D01*
X102567632Y-75645567D01*
X102547438Y-75622261D01*
X102546729Y-75620870D01*
X102542576Y-75615741D01*
X102542573Y-75615737D01*
X102430700Y-75477586D01*
X102426545Y-75472455D01*
X102421414Y-75468300D01*
X102283263Y-75356427D01*
X102283259Y-75356424D01*
X102278130Y-75352271D01*
X102272253Y-75349276D01*
X102272249Y-75349274D01*
X102113851Y-75268567D01*
X102107971Y-75265571D01*
X102101597Y-75263863D01*
X101929081Y-75217637D01*
X101929077Y-75217636D01*
X101923504Y-75216143D01*
X101913775Y-75215377D01*
X101846637Y-75210093D01*
X101846630Y-75210093D01*
X101844181Y-75209900D01*
X101380788Y-75209900D01*
X100917020Y-75209901D01*
X100867653Y-75213786D01*
X100843450Y-75215690D01*
X100843448Y-75215690D01*
X100837696Y-75216143D01*
X100653229Y-75265571D01*
X100647349Y-75268567D01*
X100488951Y-75349274D01*
X100488947Y-75349276D01*
X100483070Y-75352271D01*
X100477941Y-75356424D01*
X100477937Y-75356427D01*
X100339786Y-75468300D01*
X100334655Y-75472455D01*
X100330500Y-75477586D01*
X100218627Y-75615737D01*
X100218624Y-75615741D01*
X100214471Y-75620870D01*
X100214434Y-75620942D01*
X100162392Y-75665602D01*
X100092070Y-75675369D01*
X100027632Y-75645567D01*
X100007438Y-75622261D01*
X100006729Y-75620870D01*
X100002576Y-75615741D01*
X100002573Y-75615737D01*
X99890700Y-75477586D01*
X99886545Y-75472455D01*
X99881414Y-75468300D01*
X99743263Y-75356427D01*
X99743259Y-75356424D01*
X99738130Y-75352271D01*
X99732253Y-75349276D01*
X99732249Y-75349274D01*
X99573851Y-75268567D01*
X99567971Y-75265571D01*
X99561597Y-75263863D01*
X99389081Y-75217637D01*
X99389077Y-75217636D01*
X99383504Y-75216143D01*
X99373775Y-75215377D01*
X99306637Y-75210093D01*
X99306630Y-75210093D01*
X99304181Y-75209900D01*
X98840788Y-75209900D01*
X98377020Y-75209901D01*
X98327653Y-75213786D01*
X98303450Y-75215690D01*
X98303448Y-75215690D01*
X98297696Y-75216143D01*
X98113229Y-75265571D01*
X98107349Y-75268567D01*
X97948951Y-75349274D01*
X97948947Y-75349276D01*
X97943070Y-75352271D01*
X97937941Y-75356424D01*
X97937937Y-75356427D01*
X97799786Y-75468300D01*
X97794655Y-75472455D01*
X97790500Y-75477586D01*
X97678627Y-75615737D01*
X97678624Y-75615741D01*
X97674471Y-75620870D01*
X97674434Y-75620942D01*
X97622392Y-75665602D01*
X97552070Y-75675369D01*
X97487632Y-75645567D01*
X97467438Y-75622261D01*
X97466729Y-75620870D01*
X97462576Y-75615741D01*
X97462573Y-75615737D01*
X97350700Y-75477586D01*
X97346545Y-75472455D01*
X97341414Y-75468300D01*
X97203263Y-75356427D01*
X97203259Y-75356424D01*
X97198130Y-75352271D01*
X97192253Y-75349276D01*
X97192249Y-75349274D01*
X97033851Y-75268567D01*
X97027971Y-75265571D01*
X97021597Y-75263863D01*
X96849081Y-75217637D01*
X96849077Y-75217636D01*
X96843504Y-75216143D01*
X96833775Y-75215377D01*
X96766637Y-75210093D01*
X96766630Y-75210093D01*
X96764181Y-75209900D01*
X96300788Y-75209900D01*
X95837020Y-75209901D01*
X95787653Y-75213786D01*
X95763450Y-75215690D01*
X95763448Y-75215690D01*
X95757696Y-75216143D01*
X95573229Y-75265571D01*
X95567349Y-75268567D01*
X95408951Y-75349274D01*
X95408947Y-75349276D01*
X95403070Y-75352271D01*
X95397941Y-75356424D01*
X95397937Y-75356427D01*
X95259786Y-75468300D01*
X95254655Y-75472455D01*
X95250500Y-75477586D01*
X95138627Y-75615737D01*
X95138624Y-75615741D01*
X95134471Y-75620870D01*
X95134434Y-75620942D01*
X95082392Y-75665602D01*
X95012070Y-75675369D01*
X94947632Y-75645567D01*
X94927438Y-75622261D01*
X94926729Y-75620870D01*
X94922576Y-75615741D01*
X94922573Y-75615737D01*
X94810700Y-75477586D01*
X94806545Y-75472455D01*
X94801414Y-75468300D01*
X94663263Y-75356427D01*
X94663259Y-75356424D01*
X94658130Y-75352271D01*
X94652253Y-75349276D01*
X94652249Y-75349274D01*
X94493851Y-75268567D01*
X94487971Y-75265571D01*
X94481597Y-75263863D01*
X94309081Y-75217637D01*
X94309077Y-75217636D01*
X94303504Y-75216143D01*
X94293775Y-75215377D01*
X94226637Y-75210093D01*
X94226630Y-75210093D01*
X94224181Y-75209900D01*
X93760788Y-75209900D01*
X93297020Y-75209901D01*
X93247653Y-75213786D01*
X93223450Y-75215690D01*
X93223448Y-75215690D01*
X93217696Y-75216143D01*
X93033229Y-75265571D01*
X93027349Y-75268567D01*
X92868951Y-75349274D01*
X92868947Y-75349276D01*
X92863070Y-75352271D01*
X92857941Y-75356424D01*
X92857937Y-75356427D01*
X92719786Y-75468300D01*
X92714655Y-75472455D01*
X92710500Y-75477586D01*
X92598627Y-75615737D01*
X92598624Y-75615741D01*
X92594471Y-75620870D01*
X92594434Y-75620942D01*
X92542392Y-75665602D01*
X92472070Y-75675369D01*
X92407632Y-75645567D01*
X92387438Y-75622261D01*
X92386729Y-75620870D01*
X92382576Y-75615741D01*
X92382573Y-75615737D01*
X92270700Y-75477586D01*
X92266545Y-75472455D01*
X92261414Y-75468300D01*
X92123263Y-75356427D01*
X92123259Y-75356424D01*
X92118130Y-75352271D01*
X92112253Y-75349276D01*
X92112249Y-75349274D01*
X91953851Y-75268567D01*
X91947971Y-75265571D01*
X91941597Y-75263863D01*
X91769081Y-75217637D01*
X91769077Y-75217636D01*
X91763504Y-75216143D01*
X91753775Y-75215377D01*
X91686637Y-75210093D01*
X91686630Y-75210093D01*
X91684181Y-75209900D01*
X91220788Y-75209900D01*
X90757020Y-75209901D01*
X90707653Y-75213786D01*
X90683450Y-75215690D01*
X90683448Y-75215690D01*
X90677696Y-75216143D01*
X90493229Y-75265571D01*
X90487349Y-75268567D01*
X90328951Y-75349274D01*
X90328947Y-75349276D01*
X90323070Y-75352271D01*
X90317941Y-75356424D01*
X90317937Y-75356427D01*
X90179786Y-75468300D01*
X90174655Y-75472455D01*
X90170500Y-75477586D01*
X90140789Y-75514276D01*
X90082375Y-75554628D01*
X90011418Y-75556994D01*
X89967947Y-75531061D01*
X89965522Y-75534188D01*
X89940967Y-75515144D01*
X89940600Y-75508400D01*
X89710971Y-75500871D01*
X89643542Y-75478648D01*
X89598833Y-75423497D01*
X89589100Y-75374939D01*
X89589100Y-74853875D01*
X108378083Y-74853875D01*
X108397072Y-75070919D01*
X108398975Y-75081712D01*
X108455364Y-75292161D01*
X108459110Y-75302453D01*
X108551186Y-75499911D01*
X108556669Y-75509406D01*
X108593109Y-75561448D01*
X108603588Y-75569824D01*
X108617034Y-75562756D01*
X109318578Y-74861212D01*
X109324956Y-74849532D01*
X110055008Y-74849532D01*
X110055139Y-74851365D01*
X110059390Y-74857980D01*
X110764887Y-75563477D01*
X110776662Y-75569907D01*
X110788677Y-75560611D01*
X110824531Y-75509406D01*
X110830014Y-75499911D01*
X110922090Y-75302453D01*
X110925836Y-75292161D01*
X110982225Y-75081712D01*
X110984128Y-75070919D01*
X111003117Y-74853875D01*
X111003117Y-74842925D01*
X110984128Y-74625881D01*
X110982225Y-74615088D01*
X110925836Y-74404639D01*
X110922090Y-74394347D01*
X110830014Y-74196889D01*
X110824531Y-74187394D01*
X110788091Y-74135352D01*
X110777612Y-74126976D01*
X110764166Y-74134044D01*
X110062622Y-74835588D01*
X110055008Y-74849532D01*
X109324956Y-74849532D01*
X109326192Y-74847268D01*
X109326061Y-74845435D01*
X109321810Y-74838820D01*
X108616313Y-74133323D01*
X108604538Y-74126893D01*
X108592523Y-74136189D01*
X108556669Y-74187394D01*
X108551186Y-74196889D01*
X108459110Y-74394347D01*
X108455364Y-74404639D01*
X108398975Y-74615088D01*
X108397072Y-74625881D01*
X108378083Y-74842925D01*
X108378083Y-74853875D01*
X89589100Y-74853875D01*
X89589100Y-62949023D01*
X89609102Y-62880902D01*
X89662758Y-62834409D01*
X89708886Y-62823176D01*
X90014089Y-62808105D01*
X90083113Y-62824723D01*
X90118223Y-62854657D01*
X90174655Y-62924345D01*
X90179786Y-62928500D01*
X90317937Y-63040373D01*
X90317941Y-63040376D01*
X90323070Y-63044529D01*
X90328952Y-63047526D01*
X90328955Y-63047528D01*
X90393302Y-63080314D01*
X90444918Y-63129062D01*
X90462100Y-63192581D01*
X90462100Y-68167812D01*
X90460873Y-68185350D01*
X90458151Y-68204715D01*
X90458150Y-68204732D01*
X90457599Y-68208650D01*
X90457544Y-68212609D01*
X90457381Y-68224268D01*
X90457301Y-68229963D01*
X90459517Y-68249729D01*
X90460148Y-68257562D01*
X90472088Y-68500669D01*
X90472542Y-68503729D01*
X90472542Y-68503730D01*
X90508526Y-68746328D01*
X90511854Y-68768768D01*
X90512604Y-68771764D01*
X90512605Y-68771767D01*
X90565392Y-68982517D01*
X90577706Y-69031678D01*
X90596755Y-69084919D01*
X90665951Y-69278315D01*
X90669011Y-69286868D01*
X90784889Y-69531879D01*
X90924225Y-69764353D01*
X90926065Y-69766834D01*
X91083831Y-69979563D01*
X91083837Y-69979570D01*
X91085676Y-69982050D01*
X91087756Y-69984345D01*
X91199165Y-70107269D01*
X91202928Y-70111872D01*
X91203791Y-70113293D01*
X91211189Y-70121670D01*
X91219968Y-70130449D01*
X91224231Y-70134925D01*
X91230946Y-70142333D01*
X91233188Y-70144807D01*
X91240448Y-70153586D01*
X91251787Y-70168633D01*
X91266647Y-70183915D01*
X91269739Y-70186383D01*
X91269743Y-70186387D01*
X91294799Y-70206389D01*
X91305284Y-70215765D01*
X94604524Y-73515005D01*
X94616056Y-73528270D01*
X94625614Y-73540953D01*
X94630224Y-73547071D01*
X94645084Y-73562352D01*
X94648182Y-73564825D01*
X94660128Y-73574362D01*
X94666133Y-73579472D01*
X94768572Y-73672315D01*
X94846936Y-73743338D01*
X94849416Y-73745177D01*
X94849423Y-73745183D01*
X94975607Y-73838765D01*
X95064635Y-73904791D01*
X95067295Y-73906385D01*
X95067296Y-73906386D01*
X95294445Y-74042531D01*
X95294450Y-74042533D01*
X95297110Y-74044128D01*
X95542124Y-74160007D01*
X95797315Y-74251313D01*
X95838056Y-74261518D01*
X95899273Y-74297470D01*
X95906179Y-74305469D01*
X95911635Y-74312353D01*
X95916328Y-74316347D01*
X95916329Y-74316348D01*
X96048362Y-74428716D01*
X96062250Y-74440536D01*
X96234894Y-74537024D01*
X96422992Y-74598140D01*
X96619377Y-74621558D01*
X96625512Y-74621086D01*
X96625514Y-74621086D01*
X96810430Y-74606857D01*
X96810434Y-74606856D01*
X96816572Y-74606384D01*
X97007063Y-74553198D01*
X97012567Y-74550418D01*
X97012569Y-74550417D01*
X97178095Y-74466804D01*
X97178097Y-74466803D01*
X97183596Y-74464025D01*
X97339447Y-74342261D01*
X97468678Y-74192545D01*
X97566369Y-74020579D01*
X97628797Y-73832913D01*
X97653585Y-73636695D01*
X97653980Y-73608400D01*
X97634680Y-73411567D01*
X97577516Y-73222231D01*
X97484666Y-73047604D01*
X97455763Y-73012166D01*
X103652600Y-73012166D01*
X103652937Y-73018682D01*
X103662675Y-73112532D01*
X103665568Y-73125928D01*
X103716088Y-73277353D01*
X103722253Y-73290515D01*
X103806026Y-73425892D01*
X103815060Y-73437290D01*
X103927729Y-73549763D01*
X103939140Y-73558775D01*
X104074663Y-73642312D01*
X104087841Y-73648456D01*
X104239366Y-73698715D01*
X104252732Y-73701581D01*
X104345370Y-73711072D01*
X104351785Y-73711400D01*
X104425985Y-73711400D01*
X104441224Y-73706925D01*
X104442429Y-73705535D01*
X104444100Y-73697852D01*
X104444100Y-73693285D01*
X104952100Y-73693285D01*
X104956575Y-73708524D01*
X104957965Y-73709729D01*
X104965648Y-73711400D01*
X105044366Y-73711400D01*
X105050882Y-73711063D01*
X105144732Y-73701325D01*
X105158128Y-73698432D01*
X105309553Y-73647912D01*
X105322715Y-73641747D01*
X105458092Y-73557974D01*
X105469494Y-73548936D01*
X105471167Y-73547261D01*
X105472593Y-73546481D01*
X105475227Y-73544393D01*
X105475584Y-73544844D01*
X105533449Y-73513181D01*
X105604269Y-73518184D01*
X105649354Y-73547101D01*
X105652021Y-73549763D01*
X105657597Y-73555329D01*
X105663827Y-73559169D01*
X105663828Y-73559170D01*
X105789597Y-73636695D01*
X105805680Y-73646609D01*
X105970791Y-73701374D01*
X105977627Y-73702074D01*
X105977630Y-73702075D01*
X106024970Y-73706925D01*
X106073528Y-73711900D01*
X106772672Y-73711900D01*
X106775918Y-73711563D01*
X106775922Y-73711563D01*
X106869835Y-73701819D01*
X106869839Y-73701818D01*
X106876693Y-73701107D01*
X106883229Y-73698926D01*
X106883231Y-73698926D01*
X107015995Y-73654632D01*
X107041707Y-73646054D01*
X107189631Y-73554516D01*
X107199736Y-73544393D01*
X107300072Y-73443882D01*
X107362354Y-73409803D01*
X107389245Y-73406900D01*
X108881267Y-73406900D01*
X108953538Y-73429687D01*
X109033851Y-73485923D01*
X109038835Y-73488247D01*
X109041128Y-73489571D01*
X109090121Y-73540953D01*
X109103557Y-73610667D01*
X109077171Y-73676578D01*
X109041128Y-73707809D01*
X109029598Y-73714466D01*
X108977552Y-73750909D01*
X108969176Y-73761388D01*
X108976244Y-73774834D01*
X109677788Y-74476378D01*
X109691732Y-74483992D01*
X109693565Y-74483861D01*
X109700180Y-74479610D01*
X110405677Y-73774113D01*
X110412107Y-73762338D01*
X110402811Y-73750323D01*
X110351602Y-73714466D01*
X110340072Y-73707809D01*
X110291079Y-73656427D01*
X110277642Y-73586713D01*
X110304029Y-73520802D01*
X110340072Y-73489571D01*
X110342365Y-73488247D01*
X110347349Y-73485923D01*
X110460205Y-73406900D01*
X110530389Y-73357757D01*
X110530392Y-73357755D01*
X110534900Y-73354598D01*
X110696798Y-73192700D01*
X110828123Y-73005149D01*
X110830446Y-73000167D01*
X110830449Y-73000162D01*
X110922561Y-72802625D01*
X110922561Y-72802624D01*
X110924884Y-72797643D01*
X110958449Y-72672380D01*
X110982719Y-72581802D01*
X110982719Y-72581800D01*
X110984143Y-72576487D01*
X111004098Y-72348400D01*
X110984143Y-72120313D01*
X110982719Y-72114998D01*
X110926307Y-71904467D01*
X110926306Y-71904465D01*
X110924884Y-71899157D01*
X110922561Y-71894175D01*
X110830449Y-71696638D01*
X110830446Y-71696633D01*
X110828123Y-71691651D01*
X110696798Y-71504100D01*
X110534900Y-71342202D01*
X110530392Y-71339045D01*
X110530389Y-71339043D01*
X110363091Y-71221900D01*
X110347349Y-71210877D01*
X110342367Y-71208554D01*
X110342362Y-71208551D01*
X110144825Y-71116439D01*
X110144824Y-71116439D01*
X110139843Y-71114116D01*
X110134535Y-71112694D01*
X110134533Y-71112693D01*
X109924002Y-71056281D01*
X109924000Y-71056281D01*
X109918687Y-71054857D01*
X109690600Y-71034902D01*
X109462513Y-71054857D01*
X109457200Y-71056281D01*
X109457198Y-71056281D01*
X109246667Y-71112693D01*
X109246665Y-71112694D01*
X109241357Y-71114116D01*
X109236376Y-71116439D01*
X109236375Y-71116439D01*
X109038838Y-71208551D01*
X109038833Y-71208554D01*
X109033851Y-71210877D01*
X109018109Y-71221900D01*
X108850811Y-71339043D01*
X108850808Y-71339045D01*
X108846300Y-71342202D01*
X108684402Y-71504100D01*
X108553077Y-71691651D01*
X108550753Y-71696635D01*
X108494557Y-71817149D01*
X108447640Y-71870435D01*
X108380362Y-71889900D01*
X107205545Y-71889900D01*
X107139429Y-71871160D01*
X107046750Y-71814031D01*
X107046748Y-71814030D01*
X107040520Y-71810191D01*
X106875409Y-71755426D01*
X106868573Y-71754726D01*
X106868570Y-71754725D01*
X106817074Y-71749449D01*
X106772672Y-71744900D01*
X106073528Y-71744900D01*
X106070282Y-71745237D01*
X106070278Y-71745237D01*
X105976365Y-71754981D01*
X105976361Y-71754982D01*
X105969507Y-71755693D01*
X105962971Y-71757874D01*
X105962969Y-71757874D01*
X105830205Y-71802168D01*
X105804493Y-71810746D01*
X105656569Y-71902284D01*
X105651397Y-71907465D01*
X105649327Y-71909539D01*
X105647562Y-71910505D01*
X105645659Y-71912013D01*
X105645401Y-71911687D01*
X105587046Y-71943619D01*
X105516225Y-71938618D01*
X105471130Y-71909692D01*
X105468469Y-71907036D01*
X105457060Y-71898025D01*
X105321537Y-71814488D01*
X105308359Y-71808344D01*
X105156834Y-71758085D01*
X105143468Y-71755219D01*
X105050830Y-71745728D01*
X105044415Y-71745400D01*
X104970215Y-71745400D01*
X104954976Y-71749875D01*
X104953771Y-71751265D01*
X104952100Y-71758948D01*
X104952100Y-73693285D01*
X104444100Y-73693285D01*
X104444100Y-73000515D01*
X104439625Y-72985276D01*
X104438235Y-72984071D01*
X104430552Y-72982400D01*
X103670715Y-72982400D01*
X103655476Y-72986875D01*
X103654271Y-72988265D01*
X103652600Y-72995948D01*
X103652600Y-73012166D01*
X97455763Y-73012166D01*
X97414309Y-72961338D01*
X97363560Y-72899113D01*
X97363557Y-72899110D01*
X97359665Y-72894338D01*
X97354916Y-72890409D01*
X97212025Y-72772199D01*
X97212021Y-72772197D01*
X97207275Y-72768270D01*
X97033301Y-72674202D01*
X96844368Y-72615718D01*
X96838243Y-72615074D01*
X96838242Y-72615074D01*
X96653804Y-72595689D01*
X96653802Y-72595689D01*
X96647675Y-72595045D01*
X96565176Y-72602553D01*
X96456851Y-72612411D01*
X96456848Y-72612412D01*
X96450712Y-72612970D01*
X96444806Y-72614708D01*
X96444802Y-72614709D01*
X96299745Y-72657401D01*
X96260981Y-72668810D01*
X96164580Y-72719207D01*
X96094946Y-72733041D01*
X96057990Y-72723955D01*
X96044538Y-72718383D01*
X96026925Y-72709408D01*
X95877733Y-72617985D01*
X95861737Y-72606364D01*
X95753605Y-72514012D01*
X95741257Y-72501068D01*
X95741250Y-72501075D01*
X95736345Y-72496031D01*
X95732025Y-72490462D01*
X95699368Y-72463638D01*
X95691260Y-72456285D01*
X103652600Y-72456285D01*
X103657075Y-72471524D01*
X103658465Y-72472729D01*
X103666148Y-72474400D01*
X104425985Y-72474400D01*
X104441224Y-72469925D01*
X104442429Y-72468535D01*
X104444100Y-72460852D01*
X104444100Y-71763515D01*
X104439625Y-71748276D01*
X104438235Y-71747071D01*
X104430552Y-71745400D01*
X104351834Y-71745400D01*
X104345318Y-71745737D01*
X104251468Y-71755475D01*
X104238072Y-71758368D01*
X104086647Y-71808888D01*
X104073485Y-71815053D01*
X103938108Y-71898826D01*
X103926710Y-71907860D01*
X103814237Y-72020529D01*
X103805225Y-72031940D01*
X103721688Y-72167463D01*
X103715544Y-72180641D01*
X103665285Y-72332166D01*
X103662419Y-72345532D01*
X103652928Y-72438170D01*
X103652600Y-72444585D01*
X103652600Y-72456285D01*
X95691260Y-72456285D01*
X95690248Y-72455367D01*
X92382319Y-69147438D01*
X92371854Y-69135568D01*
X92357929Y-69117616D01*
X92353608Y-69112045D01*
X92337774Y-69099039D01*
X92321943Y-69083508D01*
X92305361Y-69064092D01*
X92222652Y-68967251D01*
X92211031Y-68951255D01*
X92170083Y-68884432D01*
X92119607Y-68802062D01*
X92110635Y-68784452D01*
X92043672Y-68622784D01*
X92037564Y-68603984D01*
X92004931Y-68468055D01*
X91996717Y-68433836D01*
X91993624Y-68414310D01*
X91992993Y-68406283D01*
X91986751Y-68326959D01*
X91982455Y-68272368D01*
X91982872Y-68254673D01*
X91982843Y-68254673D01*
X91982941Y-68247633D01*
X91983825Y-68240640D01*
X91979701Y-68198576D01*
X91979100Y-68186282D01*
X91979100Y-63192581D01*
X91999102Y-63124460D01*
X92047898Y-63080314D01*
X92112245Y-63047528D01*
X92112248Y-63047526D01*
X92118130Y-63044529D01*
X92123259Y-63040376D01*
X92123263Y-63040373D01*
X92261414Y-62928500D01*
X92266545Y-62924345D01*
X92386729Y-62775930D01*
X92386950Y-62775496D01*
X92439104Y-62730738D01*
X92509425Y-62720969D01*
X92573864Y-62750770D01*
X92596569Y-62776972D01*
X92599048Y-62780790D01*
X92710855Y-62918859D01*
X92720141Y-62928145D01*
X92858210Y-63039952D01*
X92869225Y-63047105D01*
X93027530Y-63127765D01*
X93039783Y-63132469D01*
X93212197Y-63178667D01*
X93223531Y-63180614D01*
X93294590Y-63186207D01*
X93299515Y-63186400D01*
X93488485Y-63186400D01*
X93503724Y-63181925D01*
X93504929Y-63180535D01*
X93506600Y-63172852D01*
X93506600Y-61050400D01*
X93526602Y-60982279D01*
X93580258Y-60935786D01*
X93632600Y-60924400D01*
X93888600Y-60924400D01*
X93956721Y-60944402D01*
X94003214Y-60998058D01*
X94014600Y-61050400D01*
X94014600Y-63168285D01*
X94019075Y-63183524D01*
X94020465Y-63184729D01*
X94028148Y-63186400D01*
X94221685Y-63186400D01*
X94226610Y-63186207D01*
X94297669Y-63180614D01*
X94309003Y-63178667D01*
X94481417Y-63132469D01*
X94493670Y-63127765D01*
X94651975Y-63047105D01*
X94662990Y-63039952D01*
X94801059Y-62928145D01*
X94810345Y-62918859D01*
X94922152Y-62780790D01*
X94924631Y-62776972D01*
X94978508Y-62730737D01*
X95048830Y-62720970D01*
X95113269Y-62750772D01*
X95133619Y-62774259D01*
X95134471Y-62775930D01*
X95254655Y-62924345D01*
X95259786Y-62928500D01*
X95397937Y-63040373D01*
X95397941Y-63040376D01*
X95403070Y-63044529D01*
X95408947Y-63047524D01*
X95408951Y-63047526D01*
X95473302Y-63080314D01*
X95573229Y-63131229D01*
X95579602Y-63132937D01*
X95579603Y-63132937D01*
X95752119Y-63179163D01*
X95752123Y-63179164D01*
X95757696Y-63180657D01*
X95763452Y-63181110D01*
X95834563Y-63186707D01*
X95834570Y-63186707D01*
X95837019Y-63186900D01*
X96300412Y-63186900D01*
X96764180Y-63186899D01*
X96813547Y-63183014D01*
X96837750Y-63181110D01*
X96837752Y-63181110D01*
X96843504Y-63180657D01*
X97027971Y-63131229D01*
X97127898Y-63080314D01*
X97192249Y-63047526D01*
X97192253Y-63047524D01*
X97198130Y-63044529D01*
X97203259Y-63040376D01*
X97203263Y-63040373D01*
X97341414Y-62928500D01*
X97346545Y-62924345D01*
X97350987Y-62918859D01*
X97462573Y-62781063D01*
X97462576Y-62781059D01*
X97466729Y-62775930D01*
X97466766Y-62775858D01*
X97518808Y-62731198D01*
X97589130Y-62721431D01*
X97653568Y-62751233D01*
X97673762Y-62774539D01*
X97674471Y-62775930D01*
X97678624Y-62781059D01*
X97678627Y-62781063D01*
X97790213Y-62918859D01*
X97794655Y-62924345D01*
X97879783Y-62993280D01*
X97920134Y-63051693D01*
X97922499Y-63122650D01*
X97905255Y-63161197D01*
X97889645Y-63184559D01*
X97879616Y-63197629D01*
X97799635Y-63288831D01*
X97781610Y-63305714D01*
X97781278Y-63305969D01*
X97773076Y-63312263D01*
X97768326Y-63318192D01*
X97749024Y-63342285D01*
X97739785Y-63352600D01*
X97443775Y-63648610D01*
X97430333Y-63660275D01*
X97413126Y-63673195D01*
X97409826Y-63675673D01*
X97399524Y-63685762D01*
X97396986Y-63688999D01*
X97396977Y-63689009D01*
X97394625Y-63692009D01*
X97389424Y-63698221D01*
X97199232Y-63911051D01*
X97197185Y-63913936D01*
X97026867Y-64153981D01*
X97026862Y-64153989D01*
X97024820Y-64156867D01*
X97023109Y-64159963D01*
X96880737Y-64417571D01*
X96880734Y-64417578D01*
X96879027Y-64420666D01*
X96763688Y-64699130D01*
X96680251Y-64988757D01*
X96679661Y-64992229D01*
X96679660Y-64992234D01*
X96660438Y-65105378D01*
X96629768Y-65285905D01*
X96628735Y-65304308D01*
X96614928Y-65550214D01*
X96613870Y-65560900D01*
X96612231Y-65572417D01*
X96612080Y-65586836D01*
X96612577Y-65590942D01*
X96616187Y-65620770D01*
X96617100Y-65635909D01*
X96617100Y-67282413D01*
X96615843Y-67300168D01*
X96612231Y-67325545D01*
X96612080Y-67339964D01*
X96612577Y-67344066D01*
X96612577Y-67344075D01*
X96613070Y-67348148D01*
X96613785Y-67356222D01*
X96615594Y-67388438D01*
X96629768Y-67640896D01*
X96630361Y-67644385D01*
X96664239Y-67843789D01*
X96680252Y-67938044D01*
X96763688Y-68227671D01*
X96765041Y-68230938D01*
X96765044Y-68230946D01*
X96837921Y-68406892D01*
X96879028Y-68506135D01*
X97024821Y-68769934D01*
X97026863Y-68772812D01*
X97026868Y-68772820D01*
X97114553Y-68896402D01*
X97199233Y-69015750D01*
X97201588Y-69018385D01*
X97375779Y-69213309D01*
X97382584Y-69221611D01*
X97389436Y-69230737D01*
X97399525Y-69241040D01*
X97402776Y-69243589D01*
X97402777Y-69243590D01*
X97426437Y-69262142D01*
X97437785Y-69272200D01*
X97506505Y-69340920D01*
X97540531Y-69403232D01*
X97539191Y-69459543D01*
X97539436Y-69459586D01*
X97539152Y-69461197D01*
X97539118Y-69462619D01*
X97538483Y-69464990D01*
X97537057Y-69470313D01*
X97517102Y-69698400D01*
X97537057Y-69926487D01*
X97538481Y-69931800D01*
X97538481Y-69931802D01*
X97589357Y-70121670D01*
X97596316Y-70147643D01*
X97598639Y-70152624D01*
X97598639Y-70152625D01*
X97690751Y-70350162D01*
X97690754Y-70350167D01*
X97693077Y-70355149D01*
X97696234Y-70359657D01*
X97809838Y-70521900D01*
X97824402Y-70542700D01*
X97986300Y-70704598D01*
X97990808Y-70707755D01*
X97990811Y-70707757D01*
X98068989Y-70762498D01*
X98173851Y-70835923D01*
X98178833Y-70838246D01*
X98178838Y-70838249D01*
X98303204Y-70896241D01*
X98381357Y-70932684D01*
X98386665Y-70934106D01*
X98386667Y-70934107D01*
X98597198Y-70990519D01*
X98597200Y-70990519D01*
X98602513Y-70991943D01*
X98830600Y-71011898D01*
X99058687Y-70991943D01*
X99064000Y-70990519D01*
X99064002Y-70990519D01*
X99274533Y-70934107D01*
X99274535Y-70934106D01*
X99279843Y-70932684D01*
X99357996Y-70896241D01*
X99482362Y-70838249D01*
X99482367Y-70838246D01*
X99487349Y-70835923D01*
X99592211Y-70762498D01*
X99670389Y-70707757D01*
X99670392Y-70707755D01*
X99674900Y-70704598D01*
X99780693Y-70598805D01*
X99843005Y-70564779D01*
X99869788Y-70561900D01*
X99872444Y-70561900D01*
X99940565Y-70581902D01*
X99987058Y-70635558D01*
X99991967Y-70648023D01*
X100036130Y-70780393D01*
X100038450Y-70787346D01*
X100131522Y-70937748D01*
X100256697Y-71062705D01*
X100262927Y-71066545D01*
X100262928Y-71066546D01*
X100400090Y-71151094D01*
X100407262Y-71155515D01*
X100440104Y-71166408D01*
X100568611Y-71209032D01*
X100568613Y-71209032D01*
X100575139Y-71211197D01*
X100581975Y-71211897D01*
X100581978Y-71211898D01*
X100625031Y-71216309D01*
X100679600Y-71221900D01*
X101580400Y-71221900D01*
X101583646Y-71221563D01*
X101583650Y-71221563D01*
X101679308Y-71211638D01*
X101679312Y-71211637D01*
X101686166Y-71210926D01*
X101692702Y-71208745D01*
X101692704Y-71208745D01*
X101824806Y-71164672D01*
X101853946Y-71154950D01*
X102004348Y-71061878D01*
X102129305Y-70936703D01*
X102222115Y-70786138D01*
X102265312Y-70655903D01*
X102275632Y-70624789D01*
X102275632Y-70624787D01*
X102277797Y-70618261D01*
X102279791Y-70598805D01*
X102288172Y-70516998D01*
X102288500Y-70513800D01*
X103071500Y-70513800D01*
X103071837Y-70517046D01*
X103071837Y-70517050D01*
X103080320Y-70598805D01*
X103082474Y-70619566D01*
X103084655Y-70626102D01*
X103084655Y-70626104D01*
X103111897Y-70707757D01*
X103138450Y-70787346D01*
X103231522Y-70937748D01*
X103356697Y-71062705D01*
X103362927Y-71066545D01*
X103362928Y-71066546D01*
X103500090Y-71151094D01*
X103507262Y-71155515D01*
X103540104Y-71166408D01*
X103668611Y-71209032D01*
X103668613Y-71209032D01*
X103675139Y-71211197D01*
X103681975Y-71211897D01*
X103681978Y-71211898D01*
X103725031Y-71216309D01*
X103779600Y-71221900D01*
X104680400Y-71221900D01*
X104683646Y-71221563D01*
X104683650Y-71221563D01*
X104779308Y-71211638D01*
X104779312Y-71211637D01*
X104786166Y-71210926D01*
X104792702Y-71208745D01*
X104792704Y-71208745D01*
X104924806Y-71164672D01*
X104953946Y-71154950D01*
X105104348Y-71061878D01*
X105229305Y-70936703D01*
X105322115Y-70786138D01*
X105348918Y-70705330D01*
X105389347Y-70646971D01*
X105454911Y-70619734D01*
X105524793Y-70632267D01*
X105557605Y-70655903D01*
X105606300Y-70704598D01*
X105610808Y-70707755D01*
X105610811Y-70707757D01*
X105688989Y-70762498D01*
X105793851Y-70835923D01*
X105798833Y-70838246D01*
X105798838Y-70838249D01*
X105923204Y-70896241D01*
X106001357Y-70932684D01*
X106006665Y-70934106D01*
X106006667Y-70934107D01*
X106217198Y-70990519D01*
X106217200Y-70990519D01*
X106222513Y-70991943D01*
X106450600Y-71011898D01*
X106678687Y-70991943D01*
X106684000Y-70990519D01*
X106684002Y-70990519D01*
X106894533Y-70934107D01*
X106894535Y-70934106D01*
X106899843Y-70932684D01*
X106977996Y-70896241D01*
X107102362Y-70838249D01*
X107102367Y-70838246D01*
X107107349Y-70835923D01*
X107212211Y-70762498D01*
X107290389Y-70707757D01*
X107290392Y-70707755D01*
X107294900Y-70704598D01*
X107456798Y-70542700D01*
X107471363Y-70521900D01*
X107584966Y-70359657D01*
X107588123Y-70355149D01*
X107590446Y-70350167D01*
X107590449Y-70350162D01*
X107651112Y-70220069D01*
X111251795Y-70220069D01*
X111252092Y-70225222D01*
X111252092Y-70225225D01*
X111257767Y-70323641D01*
X111265127Y-70451297D01*
X111266264Y-70456343D01*
X111266265Y-70456349D01*
X111290701Y-70564779D01*
X111316046Y-70677242D01*
X111317988Y-70682024D01*
X111317989Y-70682028D01*
X111381424Y-70838249D01*
X111403184Y-70891837D01*
X111524201Y-71089319D01*
X111675847Y-71264384D01*
X111689604Y-71275805D01*
X111729239Y-71334706D01*
X111730738Y-71405687D01*
X111693624Y-71466210D01*
X111653350Y-71490731D01*
X111617995Y-71503985D01*
X111501439Y-71591339D01*
X111414085Y-71707895D01*
X111362955Y-71844284D01*
X111356200Y-71906466D01*
X111356200Y-73602734D01*
X111362955Y-73664916D01*
X111414085Y-73801305D01*
X111501439Y-73917861D01*
X111617995Y-74005215D01*
X111754384Y-74056345D01*
X111816566Y-74063100D01*
X113512834Y-74063100D01*
X113575016Y-74056345D01*
X113711405Y-74005215D01*
X113769575Y-73961619D01*
X113836081Y-73936771D01*
X113905464Y-73951824D01*
X113955694Y-74001998D01*
X113969376Y-74054885D01*
X113977062Y-74067751D01*
X115361890Y-75452580D01*
X115375831Y-75460192D01*
X115377666Y-75460061D01*
X115384280Y-75455810D01*
X116770584Y-74069505D01*
X116778099Y-74055744D01*
X116771641Y-74046384D01*
X116755339Y-74032088D01*
X116748799Y-74027070D01*
X116509556Y-73867213D01*
X116502419Y-73863092D01*
X116244351Y-73735828D01*
X116236747Y-73732678D01*
X115964280Y-73640188D01*
X115956317Y-73638054D01*
X115674100Y-73581917D01*
X115665949Y-73580844D01*
X115378819Y-73562025D01*
X115370581Y-73562025D01*
X115083451Y-73580844D01*
X115075300Y-73581917D01*
X114793083Y-73638054D01*
X114785120Y-73640188D01*
X114512653Y-73732678D01*
X114505049Y-73735828D01*
X114246982Y-73863092D01*
X114239848Y-73867211D01*
X114096262Y-73963151D01*
X114028509Y-73984365D01*
X113960042Y-73965582D01*
X113912600Y-73912764D01*
X113901243Y-73842682D01*
X113914114Y-73802907D01*
X113915315Y-73801305D01*
X113966445Y-73664916D01*
X113973200Y-73602734D01*
X113973200Y-71906466D01*
X113966445Y-71844284D01*
X113915315Y-71707895D01*
X113827961Y-71591339D01*
X113711405Y-71503985D01*
X113702996Y-71500833D01*
X113702993Y-71500831D01*
X113673418Y-71489744D01*
X113616653Y-71447104D01*
X113591952Y-71380542D01*
X113607159Y-71311193D01*
X113628706Y-71282511D01*
X113741003Y-71170605D01*
X113876158Y-70982517D01*
X113895728Y-70942921D01*
X113976484Y-70779522D01*
X113976485Y-70779520D01*
X113978778Y-70774880D01*
X114046108Y-70553271D01*
X114076340Y-70323641D01*
X114078027Y-70254600D01*
X114070959Y-70168633D01*
X114059473Y-70028918D01*
X114059472Y-70028912D01*
X114059049Y-70023767D01*
X114002625Y-69799133D01*
X114000566Y-69794397D01*
X113912330Y-69591468D01*
X113912328Y-69591465D01*
X113910270Y-69586731D01*
X113784464Y-69392265D01*
X113738872Y-69342160D01*
X113707820Y-69278315D01*
X113716216Y-69207816D01*
X113736114Y-69175696D01*
X113737341Y-69174254D01*
X113741003Y-69170605D01*
X113876158Y-68982517D01*
X113887429Y-68959713D01*
X113976484Y-68779522D01*
X113976485Y-68779520D01*
X113978778Y-68774880D01*
X114046108Y-68553271D01*
X114076340Y-68323641D01*
X114077011Y-68296190D01*
X114077945Y-68257965D01*
X114077945Y-68257961D01*
X114078027Y-68254600D01*
X114068158Y-68134556D01*
X114059473Y-68028918D01*
X114059472Y-68028912D01*
X114059049Y-68023767D01*
X114002625Y-67799133D01*
X114000566Y-67794397D01*
X113912330Y-67591468D01*
X113912328Y-67591465D01*
X113910270Y-67586731D01*
X113784464Y-67392265D01*
X113775530Y-67382446D01*
X113692627Y-67291337D01*
X113628587Y-67220958D01*
X113624536Y-67217759D01*
X113624532Y-67217755D01*
X113472995Y-67098079D01*
X113431932Y-67040162D01*
X113428700Y-66969239D01*
X113451982Y-66921388D01*
X113458196Y-66913473D01*
X113451210Y-66900321D01*
X112677511Y-66126621D01*
X112663568Y-66119008D01*
X112661734Y-66119139D01*
X112655120Y-66123390D01*
X111874880Y-66903631D01*
X111868123Y-66916005D01*
X111876716Y-66927484D01*
X111901527Y-66994004D01*
X111886436Y-67063379D01*
X111851501Y-67103754D01*
X111735176Y-67191094D01*
X111726355Y-67197717D01*
X111722783Y-67201455D01*
X111573412Y-67357763D01*
X111566339Y-67365164D01*
X111563425Y-67369436D01*
X111563424Y-67369437D01*
X111547852Y-67392265D01*
X111435819Y-67556499D01*
X111338302Y-67766581D01*
X111276407Y-67989769D01*
X111251795Y-68220069D01*
X111252092Y-68225222D01*
X111252092Y-68225225D01*
X111262994Y-68414310D01*
X111265127Y-68451297D01*
X111266264Y-68456343D01*
X111266265Y-68456349D01*
X111289298Y-68558551D01*
X111316046Y-68677242D01*
X111317988Y-68682024D01*
X111317989Y-68682028D01*
X111400177Y-68884432D01*
X111403184Y-68891837D01*
X111524201Y-69089319D01*
X111527579Y-69093219D01*
X111527580Y-69093220D01*
X111594504Y-69170479D01*
X111623986Y-69235064D01*
X111613871Y-69305337D01*
X111590361Y-69340026D01*
X111566339Y-69365164D01*
X111435819Y-69556499D01*
X111338302Y-69766581D01*
X111276407Y-69989769D01*
X111251795Y-70220069D01*
X107651112Y-70220069D01*
X107682561Y-70152625D01*
X107682561Y-70152624D01*
X107684884Y-70147643D01*
X107691844Y-70121670D01*
X107742719Y-69931802D01*
X107742719Y-69931800D01*
X107744143Y-69926487D01*
X107764098Y-69698400D01*
X107744143Y-69470313D01*
X107742717Y-69464990D01*
X107686307Y-69254467D01*
X107686306Y-69254465D01*
X107684884Y-69249157D01*
X107679723Y-69238089D01*
X107590449Y-69046638D01*
X107590446Y-69046633D01*
X107588123Y-69041651D01*
X107494755Y-68908308D01*
X107459957Y-68858611D01*
X107459955Y-68858608D01*
X107456798Y-68854100D01*
X107294900Y-68692202D01*
X107290392Y-68689045D01*
X107290389Y-68689043D01*
X107168912Y-68603984D01*
X107107349Y-68560877D01*
X107102367Y-68558554D01*
X107102362Y-68558551D01*
X106904825Y-68466439D01*
X106904824Y-68466439D01*
X106899843Y-68464116D01*
X106894535Y-68462694D01*
X106894533Y-68462693D01*
X106684002Y-68406281D01*
X106684000Y-68406281D01*
X106678687Y-68404857D01*
X106450600Y-68384902D01*
X106222513Y-68404857D01*
X106217200Y-68406281D01*
X106217198Y-68406281D01*
X106006667Y-68462693D01*
X106006665Y-68462694D01*
X106001357Y-68464116D01*
X105996376Y-68466439D01*
X105996375Y-68466439D01*
X105798838Y-68558551D01*
X105798833Y-68558554D01*
X105793851Y-68560877D01*
X105732288Y-68603984D01*
X105610811Y-68689043D01*
X105610808Y-68689045D01*
X105606300Y-68692202D01*
X105467508Y-68830994D01*
X105405196Y-68865020D01*
X105334381Y-68859955D01*
X105277545Y-68817408D01*
X105271284Y-68808226D01*
X105228478Y-68739052D01*
X105103303Y-68614095D01*
X105086900Y-68603984D01*
X104958968Y-68525125D01*
X104958966Y-68525124D01*
X104952738Y-68521285D01*
X104792254Y-68468055D01*
X104791389Y-68467768D01*
X104791387Y-68467768D01*
X104784861Y-68465603D01*
X104778025Y-68464903D01*
X104778022Y-68464902D01*
X104734969Y-68460491D01*
X104680400Y-68454900D01*
X103779600Y-68454900D01*
X103776354Y-68455237D01*
X103776350Y-68455237D01*
X103680692Y-68465162D01*
X103680688Y-68465163D01*
X103673834Y-68465874D01*
X103667298Y-68468055D01*
X103667296Y-68468055D01*
X103578803Y-68497579D01*
X103506054Y-68521850D01*
X103355652Y-68614922D01*
X103230695Y-68740097D01*
X103226855Y-68746327D01*
X103226854Y-68746328D01*
X103157642Y-68858611D01*
X103137885Y-68890662D01*
X103082203Y-69058539D01*
X103071500Y-69163000D01*
X103071500Y-70513800D01*
X102288500Y-70513800D01*
X102288500Y-69163000D01*
X102288163Y-69159750D01*
X102278238Y-69064092D01*
X102278237Y-69064088D01*
X102277526Y-69057234D01*
X102221550Y-68889454D01*
X102128478Y-68739052D01*
X102003303Y-68614095D01*
X101986900Y-68603984D01*
X101858968Y-68525125D01*
X101858966Y-68525124D01*
X101852738Y-68521285D01*
X101692254Y-68468055D01*
X101691389Y-68467768D01*
X101691387Y-68467768D01*
X101684861Y-68465603D01*
X101678025Y-68464903D01*
X101678022Y-68464902D01*
X101634969Y-68460491D01*
X101580400Y-68454900D01*
X100679600Y-68454900D01*
X100676354Y-68455237D01*
X100676350Y-68455237D01*
X100580692Y-68465162D01*
X100580688Y-68465163D01*
X100573834Y-68465874D01*
X100567298Y-68468055D01*
X100567296Y-68468055D01*
X100478803Y-68497579D01*
X100406054Y-68521850D01*
X100255652Y-68614922D01*
X100130695Y-68740097D01*
X100126855Y-68746327D01*
X100126854Y-68746328D01*
X100056283Y-68860815D01*
X100003511Y-68908308D01*
X99933439Y-68919732D01*
X99868315Y-68891458D01*
X99845811Y-68866971D01*
X99839959Y-68858614D01*
X99839957Y-68858612D01*
X99836798Y-68854100D01*
X99674900Y-68692202D01*
X99670392Y-68689045D01*
X99670389Y-68689043D01*
X99548912Y-68603984D01*
X99487349Y-68560877D01*
X99482367Y-68558554D01*
X99482362Y-68558551D01*
X99284825Y-68466439D01*
X99284824Y-68466439D01*
X99279843Y-68464116D01*
X99274535Y-68462694D01*
X99274533Y-68462693D01*
X99064002Y-68406281D01*
X99064000Y-68406281D01*
X99058687Y-68404857D01*
X98830600Y-68384902D01*
X98602513Y-68404857D01*
X98597194Y-68406282D01*
X98597190Y-68406283D01*
X98594819Y-68406918D01*
X98593736Y-68406892D01*
X98591786Y-68407236D01*
X98591717Y-68406844D01*
X98523843Y-68405225D01*
X98473120Y-68374305D01*
X98407397Y-68308582D01*
X98396529Y-68296190D01*
X98378320Y-68272459D01*
X98362533Y-68259811D01*
X98346583Y-68244555D01*
X98334649Y-68230946D01*
X98261585Y-68147631D01*
X98251553Y-68134556D01*
X98165058Y-68005103D01*
X98156823Y-67990840D01*
X98087959Y-67851194D01*
X98081655Y-67835975D01*
X98031608Y-67688536D01*
X98027343Y-67672616D01*
X97996972Y-67519920D01*
X97994821Y-67503579D01*
X97986883Y-67382446D01*
X97987691Y-67357763D01*
X97988091Y-67354728D01*
X97988091Y-67354718D01*
X97989082Y-67347192D01*
X97984861Y-67308953D01*
X97984100Y-67295128D01*
X97984100Y-67124402D01*
X98004102Y-67056281D01*
X98057758Y-67009788D01*
X98128032Y-66999684D01*
X98171589Y-67014759D01*
X98173251Y-67015923D01*
X98178233Y-67018246D01*
X98348268Y-67097534D01*
X98380757Y-67112684D01*
X98386065Y-67114106D01*
X98386067Y-67114107D01*
X98596598Y-67170519D01*
X98596600Y-67170519D01*
X98601913Y-67171943D01*
X98830000Y-67191898D01*
X99058087Y-67171943D01*
X99063400Y-67170519D01*
X99063402Y-67170519D01*
X99273933Y-67114107D01*
X99273935Y-67114106D01*
X99279243Y-67112684D01*
X99298394Y-67103754D01*
X99481762Y-67018249D01*
X99481767Y-67018246D01*
X99486749Y-67015923D01*
X99621759Y-66921388D01*
X99669789Y-66887757D01*
X99669792Y-66887755D01*
X99674300Y-66884598D01*
X99817558Y-66741340D01*
X99879870Y-66707314D01*
X99950685Y-66712379D01*
X100007521Y-66754926D01*
X100026177Y-66790558D01*
X100038450Y-66827346D01*
X100131522Y-66977748D01*
X100256697Y-67102705D01*
X100262927Y-67106545D01*
X100262928Y-67106546D01*
X100400090Y-67191094D01*
X100407262Y-67195515D01*
X100425171Y-67201455D01*
X100568611Y-67249032D01*
X100568613Y-67249032D01*
X100575139Y-67251197D01*
X100581975Y-67251897D01*
X100581978Y-67251898D01*
X100625031Y-67256309D01*
X100679600Y-67261900D01*
X101580400Y-67261900D01*
X101583646Y-67261563D01*
X101583650Y-67261563D01*
X101679308Y-67251638D01*
X101679312Y-67251637D01*
X101686166Y-67250926D01*
X101692702Y-67248745D01*
X101692704Y-67248745D01*
X101834448Y-67201455D01*
X101853946Y-67194950D01*
X102004348Y-67101878D01*
X102129305Y-66976703D01*
X102133906Y-66969239D01*
X102218275Y-66832368D01*
X102218276Y-66832366D01*
X102222115Y-66826138D01*
X102277797Y-66658261D01*
X102288500Y-66553800D01*
X103071500Y-66553800D01*
X103082474Y-66659566D01*
X103138450Y-66827346D01*
X103231522Y-66977748D01*
X103356697Y-67102705D01*
X103362927Y-67106545D01*
X103362928Y-67106546D01*
X103500090Y-67191094D01*
X103507262Y-67195515D01*
X103525171Y-67201455D01*
X103668611Y-67249032D01*
X103668613Y-67249032D01*
X103675139Y-67251197D01*
X103681975Y-67251897D01*
X103681978Y-67251898D01*
X103725031Y-67256309D01*
X103779600Y-67261900D01*
X104680400Y-67261900D01*
X104683646Y-67261563D01*
X104683650Y-67261563D01*
X104779308Y-67251638D01*
X104779312Y-67251637D01*
X104786166Y-67250926D01*
X104792702Y-67248745D01*
X104792704Y-67248745D01*
X104934448Y-67201455D01*
X104953946Y-67194950D01*
X105104348Y-67101878D01*
X105229305Y-66976703D01*
X105236226Y-66965476D01*
X105322115Y-66826138D01*
X105323901Y-66827239D01*
X105363952Y-66781762D01*
X105432231Y-66762309D01*
X105500189Y-66782859D01*
X105520312Y-66799210D01*
X105605700Y-66884598D01*
X105610208Y-66887755D01*
X105610211Y-66887757D01*
X105658241Y-66921388D01*
X105793251Y-67015923D01*
X105798233Y-67018246D01*
X105798238Y-67018249D01*
X105981606Y-67103754D01*
X106000757Y-67112684D01*
X106006065Y-67114106D01*
X106006067Y-67114107D01*
X106216598Y-67170519D01*
X106216600Y-67170519D01*
X106221913Y-67171943D01*
X106450000Y-67191898D01*
X106678087Y-67171943D01*
X106683400Y-67170519D01*
X106683402Y-67170519D01*
X106893933Y-67114107D01*
X106893935Y-67114106D01*
X106899243Y-67112684D01*
X106918394Y-67103754D01*
X107101762Y-67018249D01*
X107101767Y-67018246D01*
X107106749Y-67015923D01*
X107241759Y-66921388D01*
X107289789Y-66887757D01*
X107289792Y-66887755D01*
X107294300Y-66884598D01*
X107456198Y-66722700D01*
X107466972Y-66707314D01*
X107519537Y-66632243D01*
X107587523Y-66535149D01*
X107589846Y-66530167D01*
X107589849Y-66530162D01*
X107681961Y-66332625D01*
X107681961Y-66332624D01*
X107684284Y-66327643D01*
X107743543Y-66106487D01*
X107763498Y-65878400D01*
X107750098Y-65725238D01*
X111252593Y-65725238D01*
X111265327Y-65946068D01*
X111266761Y-65956270D01*
X111315385Y-66172039D01*
X111318473Y-66181892D01*
X111401686Y-66386820D01*
X111406334Y-66396021D01*
X111494797Y-66540381D01*
X111505253Y-66549842D01*
X111514031Y-66546058D01*
X112292679Y-65767411D01*
X112299056Y-65755732D01*
X113029108Y-65755732D01*
X113029239Y-65757566D01*
X113033490Y-65764180D01*
X113811007Y-66541696D01*
X113823013Y-66548252D01*
X113834752Y-66539284D01*
X113872710Y-66486459D01*
X113878021Y-66477620D01*
X113976018Y-66279337D01*
X113979817Y-66269742D01*
X114044115Y-66058117D01*
X114046294Y-66048036D01*
X114075402Y-65826938D01*
X114075921Y-65820263D01*
X114077444Y-65757964D01*
X114077250Y-65751246D01*
X114058979Y-65529000D01*
X114057296Y-65518838D01*
X114003410Y-65304308D01*
X114000089Y-65294553D01*
X113911893Y-65091718D01*
X113907015Y-65082620D01*
X113833924Y-64969638D01*
X113823238Y-64960435D01*
X113813673Y-64964838D01*
X113036721Y-65741789D01*
X113029108Y-65755732D01*
X112299056Y-65755732D01*
X112300292Y-65753468D01*
X112300161Y-65751634D01*
X112295910Y-65745020D01*
X111518562Y-64967673D01*
X111507030Y-64961376D01*
X111494748Y-64970999D01*
X111439167Y-65052477D01*
X111434079Y-65061433D01*
X111340952Y-65262059D01*
X111337389Y-65271746D01*
X111278281Y-65484880D01*
X111276350Y-65495000D01*
X111252845Y-65714949D01*
X111252593Y-65725238D01*
X107750098Y-65725238D01*
X107743543Y-65650313D01*
X107742119Y-65644998D01*
X107685707Y-65434467D01*
X107685706Y-65434465D01*
X107684284Y-65429157D01*
X107681961Y-65424175D01*
X107589849Y-65226638D01*
X107589846Y-65226633D01*
X107587523Y-65221651D01*
X107456198Y-65034100D01*
X107294300Y-64872202D01*
X107289792Y-64869045D01*
X107289789Y-64869043D01*
X107211611Y-64814302D01*
X107106749Y-64740877D01*
X107101767Y-64738554D01*
X107101762Y-64738551D01*
X106904225Y-64646439D01*
X106904224Y-64646439D01*
X106899243Y-64644116D01*
X106893935Y-64642694D01*
X106893933Y-64642693D01*
X106717102Y-64595311D01*
X111870208Y-64595311D01*
X111876951Y-64607640D01*
X112651889Y-65382579D01*
X112665832Y-65390192D01*
X112667666Y-65390061D01*
X112674280Y-65385810D01*
X113453694Y-64606395D01*
X113460711Y-64593544D01*
X113452937Y-64582874D01*
X113450602Y-64581030D01*
X113442020Y-64575329D01*
X113248378Y-64468433D01*
X113238972Y-64464206D01*
X113208615Y-64453456D01*
X113971301Y-64453456D01*
X113977759Y-64462816D01*
X113994061Y-64477112D01*
X114000601Y-64482130D01*
X114239844Y-64641987D01*
X114246981Y-64646108D01*
X114505049Y-64773372D01*
X114512653Y-64776522D01*
X114785120Y-64869012D01*
X114793083Y-64871146D01*
X115075300Y-64927283D01*
X115083451Y-64928356D01*
X115370581Y-64947175D01*
X115378819Y-64947175D01*
X115665949Y-64928356D01*
X115674100Y-64927283D01*
X115956317Y-64871146D01*
X115964280Y-64869012D01*
X116236747Y-64776522D01*
X116244351Y-64773372D01*
X116502419Y-64646108D01*
X116509556Y-64641987D01*
X116748799Y-64482130D01*
X116755339Y-64477112D01*
X116769774Y-64464453D01*
X116778172Y-64451214D01*
X116772338Y-64441449D01*
X115387510Y-63056620D01*
X115373569Y-63049008D01*
X115371734Y-63049139D01*
X115365120Y-63053390D01*
X113978816Y-64439695D01*
X113971301Y-64453456D01*
X113208615Y-64453456D01*
X113030472Y-64390372D01*
X113020509Y-64387740D01*
X112802747Y-64348950D01*
X112792496Y-64347981D01*
X112571316Y-64345279D01*
X112561032Y-64345999D01*
X112342393Y-64379455D01*
X112332366Y-64381844D01*
X112122126Y-64450561D01*
X112112616Y-64454558D01*
X111916425Y-64556689D01*
X111907707Y-64562178D01*
X111878661Y-64583986D01*
X111870208Y-64595311D01*
X106717102Y-64595311D01*
X106683402Y-64586281D01*
X106683400Y-64586281D01*
X106678087Y-64584857D01*
X106450000Y-64564902D01*
X106221913Y-64584857D01*
X106216600Y-64586281D01*
X106216598Y-64586281D01*
X106006067Y-64642693D01*
X106006065Y-64642694D01*
X106000757Y-64644116D01*
X105995776Y-64646439D01*
X105995775Y-64646439D01*
X105798238Y-64738551D01*
X105798233Y-64738554D01*
X105793251Y-64740877D01*
X105688389Y-64814302D01*
X105610211Y-64869043D01*
X105610208Y-64869045D01*
X105605700Y-64872202D01*
X105520299Y-64957603D01*
X105457987Y-64991629D01*
X105387172Y-64986564D01*
X105330336Y-64944017D01*
X105321585Y-64929432D01*
X105321550Y-64929454D01*
X105232332Y-64785280D01*
X105228478Y-64779052D01*
X105103303Y-64654095D01*
X105084806Y-64642693D01*
X104958968Y-64565125D01*
X104958966Y-64565124D01*
X104952738Y-64561285D01*
X104792254Y-64508055D01*
X104791389Y-64507768D01*
X104791387Y-64507768D01*
X104784861Y-64505603D01*
X104778025Y-64504903D01*
X104778022Y-64504902D01*
X104734969Y-64500491D01*
X104680400Y-64494900D01*
X103779600Y-64494900D01*
X103776354Y-64495237D01*
X103776350Y-64495237D01*
X103680692Y-64505162D01*
X103680688Y-64505163D01*
X103673834Y-64505874D01*
X103667298Y-64508055D01*
X103667296Y-64508055D01*
X103535194Y-64552128D01*
X103506054Y-64561850D01*
X103355652Y-64654922D01*
X103230695Y-64780097D01*
X103226855Y-64786327D01*
X103226854Y-64786328D01*
X103175868Y-64869043D01*
X103137885Y-64930662D01*
X103082203Y-65098539D01*
X103071500Y-65203000D01*
X103071500Y-66553800D01*
X102288500Y-66553800D01*
X102288500Y-65203000D01*
X102287660Y-65194900D01*
X102278238Y-65104092D01*
X102278237Y-65104088D01*
X102277526Y-65097234D01*
X102272651Y-65082620D01*
X102223868Y-64936402D01*
X102221550Y-64929454D01*
X102128478Y-64779052D01*
X102003303Y-64654095D01*
X101984806Y-64642693D01*
X101858968Y-64565125D01*
X101858966Y-64565124D01*
X101852738Y-64561285D01*
X101692254Y-64508055D01*
X101691389Y-64507768D01*
X101691387Y-64507768D01*
X101684861Y-64505603D01*
X101678025Y-64504903D01*
X101678022Y-64504902D01*
X101634969Y-64500491D01*
X101580400Y-64494900D01*
X100679600Y-64494900D01*
X100676354Y-64495237D01*
X100676350Y-64495237D01*
X100580692Y-64505162D01*
X100580688Y-64505163D01*
X100573834Y-64505874D01*
X100567298Y-64508055D01*
X100567296Y-64508055D01*
X100435194Y-64552128D01*
X100406054Y-64561850D01*
X100368615Y-64585018D01*
X100357623Y-64591820D01*
X100289171Y-64610657D01*
X100221402Y-64589495D01*
X100175831Y-64535054D01*
X100166928Y-64464618D01*
X100197518Y-64400550D01*
X100221315Y-64379913D01*
X100268254Y-64348549D01*
X100282526Y-64340308D01*
X100422172Y-64271441D01*
X100437381Y-64265141D01*
X100584822Y-64215089D01*
X100600736Y-64210825D01*
X100753430Y-64180449D01*
X100769771Y-64178297D01*
X100890912Y-64170355D01*
X100915593Y-64171162D01*
X100916527Y-64171285D01*
X100918630Y-64171562D01*
X100918632Y-64171562D01*
X100926161Y-64172553D01*
X100964390Y-64168332D01*
X100978218Y-64167571D01*
X101864440Y-64167571D01*
X101866716Y-64167701D01*
X101868562Y-64168141D01*
X101873833Y-64168106D01*
X101873836Y-64168106D01*
X101953524Y-64167574D01*
X101954365Y-64167571D01*
X101988195Y-64167571D01*
X101989770Y-64167380D01*
X101991565Y-64167320D01*
X102000839Y-64167258D01*
X102033991Y-64167037D01*
X102038069Y-64166472D01*
X102038073Y-64166472D01*
X102042591Y-64165846D01*
X102048275Y-64165059D01*
X102062312Y-64161197D01*
X102070604Y-64159215D01*
X102085225Y-64156239D01*
X102095217Y-64154620D01*
X102096065Y-64154517D01*
X102110948Y-64152716D01*
X102118058Y-64150029D01*
X102125432Y-64148218D01*
X102125497Y-64148484D01*
X102130710Y-64146978D01*
X102330791Y-64106247D01*
X102356338Y-64098165D01*
X102602679Y-64020230D01*
X102602689Y-64020226D01*
X102605857Y-64019224D01*
X102721245Y-63968801D01*
X102867178Y-63905031D01*
X102867182Y-63905029D01*
X102870221Y-63903701D01*
X103120939Y-63760962D01*
X103355220Y-63592599D01*
X103540001Y-63427669D01*
X103548644Y-63420617D01*
X103557682Y-63413886D01*
X103557683Y-63413885D01*
X103560993Y-63411420D01*
X103563955Y-63408542D01*
X103568374Y-63404249D01*
X103568381Y-63404242D01*
X103571335Y-63401371D01*
X103593529Y-63373293D01*
X103603282Y-63362333D01*
X103741810Y-63223805D01*
X103804122Y-63189779D01*
X103830905Y-63186900D01*
X104356809Y-63186899D01*
X104384180Y-63186899D01*
X104433547Y-63183014D01*
X104457750Y-63181110D01*
X104457752Y-63181110D01*
X104463504Y-63180657D01*
X104647971Y-63131229D01*
X104747898Y-63080314D01*
X104812249Y-63047526D01*
X104812253Y-63047524D01*
X104818130Y-63044529D01*
X104823259Y-63040376D01*
X104823263Y-63040373D01*
X104961414Y-62928500D01*
X104966545Y-62924345D01*
X104970987Y-62918859D01*
X105082573Y-62781063D01*
X105082576Y-62781059D01*
X105086729Y-62775930D01*
X105086766Y-62775858D01*
X105138808Y-62731198D01*
X105209130Y-62721431D01*
X105273568Y-62751233D01*
X105293762Y-62774539D01*
X105294471Y-62775930D01*
X105298624Y-62781059D01*
X105298627Y-62781063D01*
X105410213Y-62918859D01*
X105414655Y-62924345D01*
X105419786Y-62928500D01*
X105557937Y-63040373D01*
X105557941Y-63040376D01*
X105563070Y-63044529D01*
X105568947Y-63047524D01*
X105568951Y-63047526D01*
X105633302Y-63080314D01*
X105733229Y-63131229D01*
X105739602Y-63132937D01*
X105739603Y-63132937D01*
X105912119Y-63179163D01*
X105912123Y-63179164D01*
X105917696Y-63180657D01*
X105923452Y-63181110D01*
X105994563Y-63186707D01*
X105994570Y-63186707D01*
X105997019Y-63186900D01*
X106460412Y-63186900D01*
X106924180Y-63186899D01*
X106973547Y-63183014D01*
X106997750Y-63181110D01*
X106997752Y-63181110D01*
X107003504Y-63180657D01*
X107187971Y-63131229D01*
X107287898Y-63080314D01*
X107352249Y-63047526D01*
X107352253Y-63047524D01*
X107358130Y-63044529D01*
X107363259Y-63040376D01*
X107363263Y-63040373D01*
X107501414Y-62928500D01*
X107506545Y-62924345D01*
X107510987Y-62918859D01*
X107622573Y-62781063D01*
X107622576Y-62781059D01*
X107626729Y-62775930D01*
X107649756Y-62730738D01*
X107671165Y-62688719D01*
X113112125Y-62688719D01*
X113130944Y-62975849D01*
X113132017Y-62984000D01*
X113188154Y-63266217D01*
X113190288Y-63274180D01*
X113282778Y-63546647D01*
X113285928Y-63554251D01*
X113413192Y-63812318D01*
X113417313Y-63819455D01*
X113577170Y-64058699D01*
X113582188Y-64065239D01*
X113594847Y-64079674D01*
X113608086Y-64088072D01*
X113617851Y-64082238D01*
X115002680Y-62697410D01*
X115009057Y-62685731D01*
X115739108Y-62685731D01*
X115739239Y-62687566D01*
X115743490Y-62694180D01*
X117129795Y-64080484D01*
X117143556Y-64087999D01*
X117152916Y-64081541D01*
X117167212Y-64065239D01*
X117172230Y-64058699D01*
X117332087Y-63819455D01*
X117336208Y-63812318D01*
X117463472Y-63554251D01*
X117466622Y-63546647D01*
X117559112Y-63274180D01*
X117561246Y-63266217D01*
X117617383Y-62984000D01*
X117618456Y-62975849D01*
X117637275Y-62688719D01*
X117637275Y-62680481D01*
X117618456Y-62393351D01*
X117617383Y-62385200D01*
X117561246Y-62102983D01*
X117559112Y-62095020D01*
X117466622Y-61822553D01*
X117463472Y-61814949D01*
X117336208Y-61556882D01*
X117332087Y-61549745D01*
X117172230Y-61310501D01*
X117167212Y-61303961D01*
X117154553Y-61289526D01*
X117141314Y-61281128D01*
X117131549Y-61286962D01*
X115746720Y-62671790D01*
X115739108Y-62685731D01*
X115009057Y-62685731D01*
X115010292Y-62683469D01*
X115010161Y-62681634D01*
X115005910Y-62675020D01*
X113619605Y-61288716D01*
X113605844Y-61281201D01*
X113596484Y-61287659D01*
X113582188Y-61303961D01*
X113577170Y-61310501D01*
X113417313Y-61549745D01*
X113413192Y-61556882D01*
X113285928Y-61814949D01*
X113282778Y-61822553D01*
X113190288Y-62095020D01*
X113188154Y-62102983D01*
X113132017Y-62385200D01*
X113130944Y-62393351D01*
X113112125Y-62680481D01*
X113112125Y-62688719D01*
X107671165Y-62688719D01*
X107710433Y-62611651D01*
X107713429Y-62605771D01*
X107762857Y-62421304D01*
X107769100Y-62341981D01*
X107769099Y-60917986D01*
X113971228Y-60917986D01*
X113977062Y-60927751D01*
X115361890Y-62312580D01*
X115375831Y-62320192D01*
X115377666Y-62320061D01*
X115384280Y-62315810D01*
X116770584Y-60929505D01*
X116778099Y-60915744D01*
X116771641Y-60906384D01*
X116755339Y-60892088D01*
X116748799Y-60887070D01*
X116509556Y-60727213D01*
X116502419Y-60723092D01*
X116244351Y-60595828D01*
X116236747Y-60592678D01*
X115964280Y-60500188D01*
X115956317Y-60498054D01*
X115674100Y-60441917D01*
X115665949Y-60440844D01*
X115378819Y-60422025D01*
X115370581Y-60422025D01*
X115083451Y-60440844D01*
X115075300Y-60441917D01*
X114793083Y-60498054D01*
X114785120Y-60500188D01*
X114512653Y-60592678D01*
X114505049Y-60595828D01*
X114246982Y-60723092D01*
X114239845Y-60727213D01*
X114000601Y-60887070D01*
X113994061Y-60892088D01*
X113979626Y-60904747D01*
X113971228Y-60917986D01*
X107769099Y-60917986D01*
X107769099Y-60014820D01*
X107762857Y-59935496D01*
X107713429Y-59751029D01*
X107692576Y-59710102D01*
X107679472Y-59640326D01*
X107706172Y-59574542D01*
X107764199Y-59533635D01*
X107804843Y-59526900D01*
X119106633Y-59526900D01*
X119126018Y-59528400D01*
G37*
G04 #@! TD.AperFunction*
M02*
