G04 #@! TF.GenerationSoftware,KiCad,Pcbnew,(6.0.11)*
G04 #@! TF.CreationDate,2025-12-09T16:45:55+09:00*
G04 #@! TF.ProjectId,xiao_pio_usb2,7869616f-5f70-4696-9f5f-757362322e6b,rev?*
G04 #@! TF.SameCoordinates,Original*
G04 #@! TF.FileFunction,Legend,Top*
G04 #@! TF.FilePolarity,Positive*
%FSLAX46Y46*%
G04 Gerber Fmt 4.6, Leading zero omitted, Abs format (unit mm)*
G04 Created by KiCad (PCBNEW (6.0.11)) date 2025-12-09 16:45:55*
%MOMM*%
%LPD*%
G01*
G04 APERTURE LIST*
G04 Aperture macros list*
%AMRoundRect*
0 Rectangle with rounded corners*
0 $1 Rounding radius*
0 $2 $3 $4 $5 $6 $7 $8 $9 X,Y pos of 4 corners*
0 Add a 4 corners polygon primitive as box body*
4,1,4,$2,$3,$4,$5,$6,$7,$8,$9,$2,$3,0*
0 Add four circle primitives for the rounded corners*
1,1,$1+$1,$2,$3*
1,1,$1+$1,$4,$5*
1,1,$1+$1,$6,$7*
1,1,$1+$1,$8,$9*
0 Add four rect primitives between the rounded corners*
20,1,$1+$1,$2,$3,$4,$5,0*
20,1,$1+$1,$4,$5,$6,$7,0*
20,1,$1+$1,$6,$7,$8,$9,0*
20,1,$1+$1,$8,$9,$2,$3,0*%
G04 Aperture macros list end*
%ADD10C,0.200000*%
%ADD11C,0.150000*%
%ADD12C,0.120000*%
%ADD13O,1.600000X1.600000*%
%ADD14C,1.600000*%
%ADD15RoundRect,0.400000X0.400000X1.100000X-0.400000X1.100000X-0.400000X-1.100000X0.400000X-1.100000X0*%
%ADD16RoundRect,0.400000X-0.400000X-1.100000X0.400000X-1.100000X0.400000X1.100000X-0.400000X1.100000X0*%
%ADD17C,3.500000*%
%ADD18C,1.800000*%
%ADD19R,1.600000X1.600000*%
G04 APERTURE END LIST*
D10*
X118942980Y-74275238D02*
X118276314Y-73751428D01*
X118276314Y-74275238D02*
X118942980Y-73751428D01*
X118942980Y-73370476D02*
X118276314Y-73370476D01*
X117942980Y-73370476D02*
X117990600Y-73418095D01*
X118038219Y-73370476D01*
X117990600Y-73322857D01*
X117942980Y-73370476D01*
X118038219Y-73370476D01*
X118942980Y-72465714D02*
X118419171Y-72465714D01*
X118323933Y-72513333D01*
X118276314Y-72608571D01*
X118276314Y-72799047D01*
X118323933Y-72894285D01*
X118895361Y-72465714D02*
X118942980Y-72560952D01*
X118942980Y-72799047D01*
X118895361Y-72894285D01*
X118800123Y-72941904D01*
X118704885Y-72941904D01*
X118609647Y-72894285D01*
X118562028Y-72799047D01*
X118562028Y-72560952D01*
X118514409Y-72465714D01*
X118942980Y-71846666D02*
X118895361Y-71941904D01*
X118847742Y-71989523D01*
X118752504Y-72037142D01*
X118466790Y-72037142D01*
X118371552Y-71989523D01*
X118323933Y-71941904D01*
X118276314Y-71846666D01*
X118276314Y-71703809D01*
X118323933Y-71608571D01*
X118371552Y-71560952D01*
X118466790Y-71513333D01*
X118752504Y-71513333D01*
X118847742Y-71560952D01*
X118895361Y-71608571D01*
X118942980Y-71703809D01*
X118942980Y-71846666D01*
X119038219Y-71322857D02*
X119038219Y-70560952D01*
X118276314Y-70322857D02*
X119276314Y-70322857D01*
X118323933Y-70322857D02*
X118276314Y-70227619D01*
X118276314Y-70037142D01*
X118323933Y-69941904D01*
X118371552Y-69894285D01*
X118466790Y-69846666D01*
X118752504Y-69846666D01*
X118847742Y-69894285D01*
X118895361Y-69941904D01*
X118942980Y-70037142D01*
X118942980Y-70227619D01*
X118895361Y-70322857D01*
X118942980Y-69418095D02*
X118276314Y-69418095D01*
X117942980Y-69418095D02*
X117990600Y-69465714D01*
X118038219Y-69418095D01*
X117990600Y-69370476D01*
X117942980Y-69418095D01*
X118038219Y-69418095D01*
X118942980Y-68799047D02*
X118895361Y-68894285D01*
X118847742Y-68941904D01*
X118752504Y-68989523D01*
X118466790Y-68989523D01*
X118371552Y-68941904D01*
X118323933Y-68894285D01*
X118276314Y-68799047D01*
X118276314Y-68656190D01*
X118323933Y-68560952D01*
X118371552Y-68513333D01*
X118466790Y-68465714D01*
X118752504Y-68465714D01*
X118847742Y-68513333D01*
X118895361Y-68560952D01*
X118942980Y-68656190D01*
X118942980Y-68799047D01*
X119038219Y-68275238D02*
X119038219Y-67513333D01*
X118276314Y-66846666D02*
X118942980Y-66846666D01*
X118276314Y-67275238D02*
X118800123Y-67275238D01*
X118895361Y-67227619D01*
X118942980Y-67132380D01*
X118942980Y-66989523D01*
X118895361Y-66894285D01*
X118847742Y-66846666D01*
X118895361Y-66418095D02*
X118942980Y-66322857D01*
X118942980Y-66132380D01*
X118895361Y-66037142D01*
X118800123Y-65989523D01*
X118752504Y-65989523D01*
X118657266Y-66037142D01*
X118609647Y-66132380D01*
X118609647Y-66275238D01*
X118562028Y-66370476D01*
X118466790Y-66418095D01*
X118419171Y-66418095D01*
X118323933Y-66370476D01*
X118276314Y-66275238D01*
X118276314Y-66132380D01*
X118323933Y-66037142D01*
X118942980Y-65560952D02*
X117942980Y-65560952D01*
X118323933Y-65560952D02*
X118276314Y-65465714D01*
X118276314Y-65275238D01*
X118323933Y-65180000D01*
X118371552Y-65132380D01*
X118466790Y-65084761D01*
X118752504Y-65084761D01*
X118847742Y-65132380D01*
X118895361Y-65180000D01*
X118942980Y-65275238D01*
X118942980Y-65465714D01*
X118895361Y-65560952D01*
X118038219Y-64703809D02*
X117990600Y-64656190D01*
X117942980Y-64560952D01*
X117942980Y-64322857D01*
X117990600Y-64227619D01*
X118038219Y-64180000D01*
X118133457Y-64132380D01*
X118228695Y-64132380D01*
X118371552Y-64180000D01*
X118942980Y-64751428D01*
X118942980Y-64132380D01*
D11*
X102473333Y-66380780D02*
X102140000Y-65904590D01*
X101901904Y-66380780D02*
X101901904Y-65380780D01*
X102282857Y-65380780D01*
X102378095Y-65428400D01*
X102425714Y-65476019D01*
X102473333Y-65571257D01*
X102473333Y-65714114D01*
X102425714Y-65809352D01*
X102378095Y-65856971D01*
X102282857Y-65904590D01*
X101901904Y-65904590D01*
X103425714Y-66380780D02*
X102854285Y-66380780D01*
X103140000Y-66380780D02*
X103140000Y-65380780D01*
X103044761Y-65523638D01*
X102949523Y-65618876D01*
X102854285Y-65666495D01*
X102473933Y-70150780D02*
X102140600Y-69674590D01*
X101902504Y-70150780D02*
X101902504Y-69150780D01*
X102283457Y-69150780D01*
X102378695Y-69198400D01*
X102426314Y-69246019D01*
X102473933Y-69341257D01*
X102473933Y-69484114D01*
X102426314Y-69579352D01*
X102378695Y-69626971D01*
X102283457Y-69674590D01*
X101902504Y-69674590D01*
X102854885Y-69246019D02*
X102902504Y-69198400D01*
X102997742Y-69150780D01*
X103235838Y-69150780D01*
X103331076Y-69198400D01*
X103378695Y-69246019D01*
X103426314Y-69341257D01*
X103426314Y-69436495D01*
X103378695Y-69579352D01*
X102807266Y-70150780D01*
X103426314Y-70150780D01*
X111677266Y-60250780D02*
X111677266Y-60965066D01*
X111629647Y-61107923D01*
X111534409Y-61203161D01*
X111391552Y-61250780D01*
X111296314Y-61250780D01*
X112058219Y-60250780D02*
X112677266Y-60250780D01*
X112343933Y-60631733D01*
X112486790Y-60631733D01*
X112582028Y-60679352D01*
X112629647Y-60726971D01*
X112677266Y-60822209D01*
X112677266Y-61060304D01*
X112629647Y-61155542D01*
X112582028Y-61203161D01*
X112486790Y-61250780D01*
X112201076Y-61250780D01*
X112105838Y-61203161D01*
X112058219Y-61155542D01*
X107443933Y-72845542D02*
X107396314Y-72893161D01*
X107253457Y-72940780D01*
X107158219Y-72940780D01*
X107015361Y-72893161D01*
X106920123Y-72797923D01*
X106872504Y-72702685D01*
X106824885Y-72512209D01*
X106824885Y-72369352D01*
X106872504Y-72178876D01*
X106920123Y-72083638D01*
X107015361Y-71988400D01*
X107158219Y-71940780D01*
X107253457Y-71940780D01*
X107396314Y-71988400D01*
X107443933Y-72036019D01*
X108396314Y-72940780D02*
X107824885Y-72940780D01*
X108110600Y-72940780D02*
X108110600Y-71940780D01*
X108015361Y-72083638D01*
X107920123Y-72178876D01*
X107824885Y-72226495D01*
D12*
X99370000Y-67248400D02*
X105910000Y-67248400D01*
X105910000Y-64508400D02*
X105910000Y-64838400D01*
X99370000Y-66918400D02*
X99370000Y-67248400D01*
X105910000Y-67248400D02*
X105910000Y-66918400D01*
X99370000Y-64838400D02*
X99370000Y-64508400D01*
X99370000Y-64508400D02*
X105910000Y-64508400D01*
X105910600Y-68328400D02*
X105910600Y-68658400D01*
X105910600Y-71068400D02*
X105910600Y-70738400D01*
X99370600Y-68328400D02*
X105910600Y-68328400D01*
X99370600Y-68658400D02*
X99370600Y-68328400D01*
X99370600Y-71068400D02*
X105910600Y-71068400D01*
X99370600Y-70738400D02*
X99370600Y-71068400D01*
X107560600Y-62898400D02*
X90120600Y-62898400D01*
X107560600Y-78898400D02*
X90120600Y-78898400D01*
X107560600Y-75498400D02*
X107560600Y-78898400D01*
X90120600Y-78898400D02*
X90120600Y-75498400D01*
X90120600Y-59498400D02*
X90120600Y-62898400D01*
X92490600Y-62898400D02*
X92490600Y-59498400D01*
X107560600Y-59498400D02*
X90120600Y-59498400D01*
X92490600Y-75498400D02*
X92490600Y-78898400D01*
X107560600Y-62898400D02*
X107560600Y-59498400D01*
X107560600Y-75498400D02*
X90120600Y-75498400D01*
X110890700Y-72254600D02*
X110890700Y-73254600D01*
X111390700Y-72754600D02*
X110890700Y-72254600D01*
X113524700Y-61894600D02*
X111544700Y-61894600D01*
X110890700Y-73254600D02*
X111390700Y-72754600D01*
X111544700Y-76614600D02*
X113524700Y-76614600D01*
X111544700Y-76614600D02*
X111544700Y-61894600D01*
X108770600Y-72969400D02*
X108770600Y-74227400D01*
X110610600Y-72969400D02*
X110610600Y-74227400D01*
%LPC*%
D13*
X106450000Y-65878400D03*
D14*
X98830000Y-65878400D03*
D13*
X106450600Y-69698400D03*
D14*
X98830600Y-69698400D03*
D15*
X91220600Y-61178400D03*
X93760600Y-61178400D03*
X96300600Y-61178400D03*
X98840600Y-61178400D03*
X101380600Y-61178400D03*
X103920600Y-61178400D03*
X106460600Y-61178400D03*
D16*
X106460600Y-77218400D03*
X103920600Y-77218400D03*
X101380600Y-77218400D03*
X98840600Y-77218400D03*
X96300600Y-77218400D03*
X93760600Y-77218400D03*
X91220600Y-77218400D03*
D17*
X115374700Y-75824600D03*
X115374700Y-62684600D03*
D18*
X112664700Y-65754600D03*
X112664700Y-68254600D03*
X112664700Y-70254600D03*
D19*
X112664700Y-72754600D03*
D14*
X109690600Y-74848400D03*
X109690600Y-72348400D03*
M02*
